<svg xmlns="http://www.w3.org/2000/svg" xmlns:xlink="http://www.w3.org/1999/xlink" width="400" zoomAndPan="magnify" viewBox="0 0 300 299.999988" height="400" preserveAspectRatio="xMidYMid meet" version="1.0"><defs><clipPath id="65652b6c8c"><path d="M 3.050781 3.050781 L 297.050781 3.050781 L 297.050781 297 L 3.050781 297 Z M 3.050781 3.050781 " clip-rule="nonzero"/></clipPath><clipPath id="d1f72c8b16"><path d="M 84 57 L 219 57 L 219 297.050781 L 84 297.050781 Z M 84 57 " clip-rule="nonzero"/></clipPath></defs><g clip-path="url(#65652b6c8c)"><path fill="#0866ff" d="M 297.089844 150.078125 C 297.089844 68.871094 231.269531 3.050781 150.078125 3.050781 C 68.882812 3.050781 3.050781 68.871094 3.050781 150.078125 C 3.050781 219.023438 50.515625 276.886719 114.554688 292.773438 L 114.554688 195.007812 L 84.230469 195.007812 L 84.230469 150.078125 L 114.554688 150.078125 L 114.554688 130.71875 C 114.554688 80.679688 137.199219 57.484375 186.324219 57.484375 C 195.640625 57.484375 211.714844 59.304688 218.285156 61.136719 L 218.285156 101.859375 C 214.816406 101.492188 208.785156 101.304688 201.304688 101.304688 C 177.195312 101.304688 167.878906 110.4375 167.878906 134.175781 L 167.878906 150.0625 L 215.898438 150.0625 L 207.648438 194.996094 L 167.878906 194.996094 L 167.878906 296.007812 C 240.679688 287.21875 297.089844 225.226562 297.089844 150.0625 Z M 297.089844 150.078125 " fill-opacity="1" fill-rule="nonzero"/></g><g clip-path="url(#d1f72c8b16)"><path fill="#ffffff" d="M 207.664062 194.996094 L 215.910156 150.0625 L 167.890625 150.0625 L 167.890625 134.175781 C 167.890625 110.4375 177.207031 101.304688 201.316406 101.304688 C 208.796875 101.304688 214.828125 101.492188 218.300781 101.859375 L 218.300781 61.136719 C 211.726562 59.316406 195.65625 57.484375 186.339844 57.484375 C 137.210938 57.484375 114.566406 80.679688 114.566406 130.71875 L 114.566406 150.078125 L 84.242188 150.078125 L 84.242188 195.007812 L 114.566406 195.007812 L 114.566406 292.773438 C 125.941406 295.597656 137.832031 297.105469 150.089844 297.105469 C 156.121094 297.105469 162.058594 296.734375 167.90625 296.019531 L 167.90625 195.007812 L 207.675781 195.007812 Z M 207.664062 194.996094 " fill-opacity="1" fill-rule="nonzero"/></g></svg>