<svg xmlns="http://www.w3.org/2000/svg" xmlns:xlink="http://www.w3.org/1999/xlink" width="4838" zoomAndPan="magnify" viewBox="0 0 3628.5 2040.749966" height="2721" preserveAspectRatio="xMidYMid meet" version="1.0"><defs><filter x="0%" y="0%" width="100%" height="100%" id="a88d752ea9"><feColorMatrix values="0 0 0 0 1 0 0 0 0 1 0 0 0 0 1 0 0 0 1 0" color-interpolation-filters="sRGB"/></filter><clipPath id="c4f917b9dc"><path d="M 0 0.015625 L 3628 0.015625 L 3628 2040.484375 L 0 2040.484375 Z M 0 0.015625 " clip-rule="nonzero"/></clipPath><clipPath id="d90d1fa864"><path d="M 0 0.015625 L 3627.652344 0.015625 L 3627.652344 2040.289062 L 0 2040.289062 Z M 0 0.015625 " clip-rule="nonzero"/></clipPath><clipPath id="758cdbfa8c"><path d="M 44 0.015625 L 3581 0.015625 L 3581 2040.484375 L 44 2040.484375 Z M 44 0.015625 " clip-rule="nonzero"/></clipPath><mask id="dcf7faa73e"><g filter="url(#a88d752ea9)"><rect x="-798.27" width="5225.04" fill="#000000" y="-448.964993" height="2938.679951" fill-opacity="0.42"/></g></mask><clipPath id="ed01c08d66"><path d="M 3 0.015625 L 3536 0.015625 L 3536 2040.484375 L 3 2040.484375 Z M 3 0.015625 " clip-rule="nonzero"/></clipPath><clipPath id="a5054ae998"><path d="M 3535.894531 -120.523438 L 1842.839844 3121.507812 L 3.59375 2161.015625 L 1696.648438 -1081.015625 Z M 3535.894531 -120.523438 " clip-rule="nonzero"/></clipPath><clipPath id="4469481532"><path d="M 1 0.015625 L 3533 0.015625 L 3533 2040.484375 L 1 2040.484375 Z M 1 0.015625 " clip-rule="nonzero"/></clipPath><clipPath id="46f235fdad"><path d="M 3532.894531 -120.523438 L 1839.839844 3121.507812 L 0.59375 2161.015625 L 1693.648438 -1081.015625 Z M 3532.894531 -120.523438 " clip-rule="nonzero"/></clipPath><clipPath id="03cfbaebd7"><rect x="0" width="3533" y="0" height="2041"/></clipPath><clipPath id="a68e774a58"><rect x="0" width="3537" y="0" height="2041"/></clipPath><clipPath id="bdbcae4efe"><path d="M 59 0.015625 L 3595 0.015625 L 3595 2040.484375 L 59 2040.484375 Z M 59 0.015625 " clip-rule="nonzero"/></clipPath><mask id="9988a0a534"><g filter="url(#a88d752ea9)"><rect x="-798.27" width="5225.04" fill="#000000" y="-448.964993" height="2938.679951" fill-opacity="0.42"/></g></mask><clipPath id="6d06c5ed96"><path d="M 0.273438 0.015625 L 3534 0.015625 L 3534 2040.484375 L 0.273438 2040.484375 Z M 0.273438 0.015625 " clip-rule="nonzero"/></clipPath><clipPath id="8ed5af137e"><path d="M 1839.535156 -1069.027344 L 3533.058594 2172.761719 L 1693.949219 3133.519531 L 0.429688 -108.269531 Z M 1839.535156 -1069.027344 " clip-rule="nonzero"/></clipPath><clipPath id="2a601fd0f0"><path d="M 0.273438 0.015625 L 3533 0.015625 L 3533 2040.484375 L 0.273438 2040.484375 Z M 0.273438 0.015625 " clip-rule="nonzero"/></clipPath><clipPath id="30d9ca0616"><path d="M 1839.535156 -1069.027344 L 3533.058594 2172.761719 L 1693.949219 3133.519531 L 0.429688 -108.269531 Z M 1839.535156 -1069.027344 " clip-rule="nonzero"/></clipPath><clipPath id="1b22fd2c50"><rect x="0" width="3534" y="0" height="2041"/></clipPath><clipPath id="8c51f68b88"><rect x="0" width="3536" y="0" height="2041"/></clipPath><clipPath id="26ec5fd468"><rect x="0" width="3628" y="0" height="2041"/></clipPath></defs><g clip-path="url(#c4f917b9dc)"><path fill="#ffffff" d="M 0 0.015625 L 3628 0.015625 L 3628 2040.484375 L 0 2040.484375 Z M 0 0.015625 " fill-opacity="1" fill-rule="nonzero"/><g transform="matrix(1, 0, 0, 1, 0, -0.000000000000236405)"><g clip-path="url(#26ec5fd468)"><g clip-path="url(#d90d1fa864)"><path fill="#93aaa9" d="M 0 0.015625 L 3627.652344 0.015625 L 3627.652344 2040.289062 L 0 2040.289062 Z M 0 0.015625 " fill-opacity="1" fill-rule="nonzero"/></g><g clip-path="url(#758cdbfa8c)"><g mask="url(#dcf7faa73e)"><g transform="matrix(1, 0, 0, 1, 44, -0.000000000000236405)"><g clip-path="url(#a68e774a58)"><g clip-path="url(#ed01c08d66)"><g clip-path="url(#a5054ae998)"><g transform="matrix(1, 0, 0, 1, 3, -0.000000000000236405)"><g clip-path="url(#03cfbaebd7)"><g clip-path="url(#4469481532)"><g clip-path="url(#46f235fdad)"><path fill="#003735" d="M 3532.894531 -120.523438 L 1840.777344 3119.710938 L 1.53125 2159.21875 L 1693.648438 -1081.015625 Z M 3532.894531 -120.523438 " fill-opacity="1" fill-rule="nonzero"/></g></g></g></g></g></g></g></g></g></g><g clip-path="url(#bdbcae4efe)"><g mask="url(#9988a0a534)"><g transform="matrix(1, 0, 0, 1, 59, -0.000000000000236405)"><g clip-path="url(#8c51f68b88)"><g clip-path="url(#6d06c5ed96)"><g clip-path="url(#8ed5af137e)"><g transform="matrix(1, 0, 0, 1, 0, -0.000000000000236405)"><g clip-path="url(#1b22fd2c50)"><g clip-path="url(#2a601fd0f0)"><g clip-path="url(#30d9ca0616)"><path fill="#003735" d="M 1839.535156 -1069.027344 L 3532.117188 2170.964844 L 1693.011719 3131.722656 L 0.429688 -108.269531 Z M 1839.535156 -1069.027344 " fill-opacity="1" fill-rule="nonzero"/></g></g></g></g></g></g></g></g></g></g></g></g></g></svg>