<?xml version="1.0" encoding="UTF-8" standalone="no"?>
<!DOCTYPE svg PUBLIC "-//W3C//DTD SVG 1.1//EN" "http://www.w3.org/Graphics/SVG/1.1/DTD/svg11.dtd">
<svg xmlns="http://www.w3.org/2000/svg" version="1.1" viewBox="0.00 0.00 2365.00 1330.00">
<path fill="#38cac7" d="
  M 60.47 0.00
  Q 88.38 28.41 117.70 56.80
  Q 119.20 58.26 121.74 58.28
  C 140.46 58.47 153.67 58.63 172.16 58.45
  Q 191.95 58.26 194.00 58.28
  Q 196.12 58.29 197.42 59.59
  Q 211.73 73.87 228.57 91.09
  A 1.69 1.69 0.0 0 1 229.04 92.26
  L 229.04 171.45
  A 0.42 0.41 0.0 0 0 229.46 171.86
  L 301.70 171.86
  A 0.34 0.34 0.0 0 0 302.04 171.52
  L 302.04 72.40
  A 3.79 3.78 -67.7 0 0 300.92 69.71
  Q 264.70 33.88 233.64 2.81
  Q 233.19 2.35 232.08 1.50
  Q 230.60 0.38 231.59 0.00
  L 233.49 0.00
  Q 235.20 0.57 236.06 1.43
  Q 268.18 33.54 303.49 68.48
  A 3.59 3.57 22.6 0 1 304.54 71.01
  Q 304.44 124.22 304.63 168.00
  C 304.64 171.48 304.50 171.98 307.02 174.54
  Q 358.07 226.54 401.26 269.40
  Q 428.78 296.71 438.99 307.21
  C 453.96 322.61 469.51 337.79 485.98 354.43
  Q 525.70 394.57 544.57 413.43
  Q 584.88 453.73 623.99 492.76
  Q 649.04 517.75 678.55 547.58
  A 0.96 0.95 -45.2 0 1 678.55 548.91
  L 677.85 549.61
  A 0.83 0.83 0.0 0 1 676.67 549.61
  L 303.72 175.30
  A 2.32 2.32 0.0 0 0 302.08 174.62
  L 227.46 174.62
  A 1.05 1.05 0.0 0 1 226.41 173.56
  Q 226.68 132.00 226.40 95.50
  Q 226.37 92.49 225.48 91.56
  Q 214.06 79.71 196.39 62.13
  A 3.79 3.79 0.0 0 0 193.76 61.02
  Q 157.71 60.52 120.50 61.02
  C 118.35 61.05 117.30 60.44 115.71 58.90
  Q 87.81 31.91 59.74 2.94
  A 4.81 4.37 -2.8 0 0 59.06 2.38
  Q 55.92 0.33 57.75 0.00
  L 60.47 0.00
  Z"
/>
<path fill="#38cac7" d="
  M 689.98 0.00
  Q 692.37 -0.12 689.15 2.09
  A 4.30 4.28 5.3 0 0 688.52 2.61
  Q 636.98 54.05 608.00 82.75
  Q 606.36 84.38 606.36 86.27
  Q 606.27 190.78 606.38 278.13
  A 1.09 1.08 2.6 0 0 607.37 279.21
  Q 613.33 279.74 616.16 286.13
  C 619.76 294.30 612.42 302.52 604.02 301.04
  C 592.45 298.99 591.45 281.30 603.17 278.92
  A 0.77 0.77 0.0 0 0 603.78 278.17
  Q 603.69 202.41 603.76 85.25
  Q 603.77 83.15 605.33 81.58
  Q 646.27 40.49 687.15 0.00
  L 689.98 0.00
  Z"
/>
<path fill="#38cac7" d="
  M 1605.91 0.00
  Q 1607.36 0.48 1607.82 0.93
  Q 1636.83 29.30 1717.87 109.38
  Q 1722.43 113.88 1724.14 115.45
  A 3.54 3.48 73.2 0 0 1725.64 116.27
  Q 1726.43 116.48 1729.00 116.49
  Q 1819.00 116.76 1976.02 116.56
  Q 1978.24 116.56 1979.42 117.70
  Q 1983.62 121.75 1998.02 136.27
  C 1999.64 137.90 1999.94 139.46 1999.94 141.75
  Q 1999.92 221.70 1999.98 292.22
  C 1999.98 293.92 2000.00 296.51 1999.01 297.51
  C 1934.94 362.29 1867.91 429.76 1798.54 498.15
  A 0.64 0.64 0.0 0 0 1798.54 499.07
  L 1900.57 600.11
  A 0.27 0.25 -53.5 0 0 1900.98 600.04
  Q 1902.06 598.03 1903.95 595.95
  Q 1909.95 589.38 1922.69 576.69
  Q 1946.30 553.18 2088.39 410.89
  Q 2199.68 299.43 2200.72 298.51
  Q 2200.79 298.45 2202.05 297.27
  Q 2203.60 295.83 2203.60 294.74
  Q 2203.75 204.97 2203.65 135.42
  A 3.19 3.16 -22.8 0 1 2204.57 133.19
  Q 2267.10 70.28 2336.44 0.94
  Q 2336.86 0.53 2337.98 0.00
  L 2340.44 0.00
  Q 2340.03 1.13 2338.57 2.45
  Q 2336.49 4.34 2336.35 4.49
  Q 2258.09 82.95 2208.87 132.37
  Q 2206.37 134.88 2206.21 136.05
  A 1.28 0.99 -81.9 0 0 2206.20 136.23
  L 2206.25 295.10
  A 4.40 4.39 -22.4 0 1 2204.95 298.22
  Q 2077.69 425.57 1925.43 577.43
  Q 1915.61 587.23 1904.16 599.16
  Q 1903.49 599.87 1901.88 600.59
  A 0.35 0.35 0.0 0 0 1901.77 601.16
  C 1932.04 631.80 1961.10 660.38 1995.38 695.03
  Q 2000.19 699.88 2003.88 704.93
  A 2.25 2.10 83.5 0 0 2004.64 705.58
  L 2009.74 708.22
  A 2.53 2.51 81.3 0 1 2010.40 708.71
  Q 2015.41 713.76 2013.96 720.32
  C 2011.76 730.32 1998.31 731.93 1992.79 724.23
  C 1987.65 717.06 1991.79 706.92 2000.57 705.76
  A 0.64 0.63 64.2 0 0 2000.94 704.69
  Q 1993.12 696.50 1975.71 679.04
  Q 1911.02 614.17 1907.36 610.62
  C 1901.96 605.37 1891.92 595.57 1884.65 588.07
  Q 1867.23 570.10 1831.76 535.71
  Q 1820.50 524.79 1796.77 500.54
  A 0.36 0.36 0.0 0 0 1796.26 500.53
  L 1666.61 630.73
  A 1.55 1.53 67.7 0 0 1666.16 631.82
  L 1666.16 708.15
  A 2.93 2.92 22.4 0 0 1667.03 710.23
  C 1696.33 739.02 1720.89 763.65 1750.68 792.44
  C 1778.93 819.74 1801.86 843.26 1832.70 874.30
  C 1845.56 887.25 1861.36 902.06 1874.01 915.34
  Q 1878.56 920.12 1897.64 939.84
  A 0.27 0.27 0.0 0 0 1898.02 939.84
  C 1912.47 926.13 1926.49 912.31 1940.84 898.78
  Q 1949.92 890.22 1963.96 875.96
  Q 2007.88 831.37 2030.95 807.46
  C 2034.18 804.11 2037.06 803.38 2037.05 798.50
  Q 2036.94 696.11 2036.88 590.78
  A 1.22 1.21 2.0 0 0 2035.75 589.57
  Q 2030.10 589.21 2028.28 582.79
  C 2026.64 577.00 2030.85 571.72 2036.35 570.63
  Q 2040.07 569.89 2043.68 573.40
  A 0.20 0.20 0.0 0 0 2043.96 573.40
  L 2286.61 328.37
  A 2.40 2.36 -23.1 0 0 2287.30 326.70
  L 2287.30 220.51
  A 1.09 1.08 8.8 0 0 2286.54 219.48
  Q 2279.53 217.26 2278.40 210.80
  C 2277.29 204.38 2281.55 199.52 2288.03 198.57
  C 2290.61 198.19 2293.51 199.64 2295.60 200.73
  A 0.39 0.38 -52.6 0 0 2296.06 200.66
  L 2363.67 132.39
  A 0.51 0.50 67.5 0 1 2364.53 132.75
  L 2364.53 134.64
  A 2.51 2.49 67.7 0 1 2363.80 136.41
  Q 2340.18 160.02 2320.32 180.06
  Q 2307.46 193.04 2299.74 200.23
  Q 2298.68 201.21 2297.85 201.63
  A 0.94 0.93 -26.6 0 0 2297.43 202.87
  C 2301.39 210.95 2297.96 217.46 2289.90 219.69
  A 0.65 0.65 0.0 0 0 2289.42 220.32
  L 2289.42 327.48
  A 3.83 3.79 -23.8 0 1 2288.40 330.07
  Q 2282.90 336.02 2277.72 341.22
  Q 2212.13 407.16 2131.83 488.58
  Q 2112.11 508.58 2090.91 529.91
  Q 2052.28 568.79 2050.41 570.66
  Q 2048.79 572.30 2046.41 574.33
  A 1.26 1.25 -35.2 0 0 2046.13 575.91
  C 2049.18 581.27 2045.89 587.87 2040.42 589.43
  A 1.10 1.09 -8.1 0 0 2039.63 590.48
  L 2039.63 605.77
  A 0.51 0.51 0.0 0 0 2040.59 606.02
  C 2041.95 603.64 2042.83 602.25 2044.96 600.11
  Q 2227.10 417.07 2360.46 282.46
  Q 2362.11 280.79 2363.57 279.06
  A 0.59 0.58 65.2 0 1 2364.60 279.44
  L 2364.60 281.48
  A 2.21 2.20 70.5 0 1 2363.79 283.19
  Q 2362.45 284.27 2361.62 285.12
  Q 2231.24 417.03 2097.65 551.15
  Q 2062.51 586.42 2048.51 600.86
  C 2046.12 603.32 2043.06 605.84 2040.61 607.42
  A 2.37 2.35 -16.7 0 0 2039.54 609.39
  L 2039.54 801.11
  A 3.28 3.28 0.0 0 1 2038.58 803.43
  Q 2022.69 819.31 2003.93 838.78
  C 1992.46 850.69 1977.61 865.21 1967.85 875.26
  Q 1953.91 889.62 1943.99 899.08
  C 1927.39 914.92 1915.45 927.23 1899.99 940.97
  A 0.96 0.95 46.8 0 0 1899.95 942.36
  L 1945.83 988.41
  A 0.95 0.95 0.0 0 0 1947.18 988.40
  Q 1980.60 954.58 1999.97 934.72
  C 2025.33 908.72 2055.98 879.20 2083.58 851.33
  Q 2084.91 849.99 2084.93 847.29
  Q 2085.34 765.93 2084.85 658.26
  Q 2084.84 655.56 2086.20 654.20
  C 2161.09 579.55 2192.95 548.02 2261.13 479.29
  Q 2302.28 437.81 2363.88 375.93
  A 0.26 0.25 63.6 0 1 2364.31 376.08
  L 2364.67 378.90
  A 0.74 0.73 -26.7 0 1 2364.46 379.52
  L 2088.37 655.61
  A 1.37 0.99 -87.8 0 0 2088.19 655.84
  Q 2087.47 657.05 2087.46 659.25
  Q 2087.29 756.10 2087.60 847.13
  C 2087.61 849.77 2087.28 851.20 2085.49 852.99
  Q 2049.84 888.54 2036.46 901.59
  Q 2013.14 924.32 1992.40 945.77
  Q 1972.12 966.75 1948.68 990.30
  A 0.62 0.62 0.0 0 0 1948.68 991.16
  L 2180.26 1222.73
  A 2.15 2.15 0.0 0 0 2181.78 1223.36
  L 2206.90 1223.36
  A 0.80 0.80 0.0 0 0 2207.70 1222.64
  C 2208.95 1209.92 2227.66 1209.61 2228.80 1222.63
  A 0.84 0.83 87.4 0 0 2229.63 1223.39
  L 2363.54 1223.39
  A 0.88 0.87 90.0 0 1 2364.41 1224.27
  L 2364.41 1225.07
  A 0.82 0.82 0.0 0 1 2363.59 1225.89
  L 2229.65 1225.89
  A 1.35 1.34 -83.5 0 0 2228.34 1226.94
  C 2227.48 1230.67 2223.70 1233.70 2219.88 1234.12
  Q 2211.01 1235.11 2208.00 1226.48
  A 0.71 0.71 0.0 0 0 2207.32 1226.01
  Q 2200.89 1226.18 2184.70 1226.07
  C 2182.51 1226.05 2180.03 1226.23 2178.49 1224.67
  Q 2165.95 1211.97 2122.65 1168.73
  Q 2099.23 1145.35 2001.74 1047.81
  Q 1955.22 1001.26 1946.69 992.48
  A 0.46 0.45 45.0 0 0 1946.04 992.47
  L 1883.17 1055.96
  A 0.45 0.45 0.0 0 0 1883.17 1056.60
  Q 1889.04 1062.32 1912.43 1085.52
  C 1981.79 1154.33 2051.89 1225.15 2116.89 1290.92
  Q 2118.82 1292.88 2123.65 1297.16
  A 1.68 1.46 9.9 0 1 2123.92 1297.49
  L 2125.66 1300.51
  A 0.55 0.54 52.2 0 0 2126.52 1300.62
  C 2129.92 1297.14 2133.64 1294.88 2138.67 1296.03
  Q 2147.75 1298.10 2148.85 1307.45
  A 1.04 1.04 0.0 0 0 2149.99 1308.36
  C 2154.37 1307.88 2159.25 1308.35 2163.62 1308.35
  Q 2267.59 1308.48 2277.00 1308.56
  Q 2279.11 1308.58 2280.33 1309.92
  Q 2286.04 1316.25 2293.44 1323.82
  Q 2296.67 1327.13 2299.38 1329.25
  A 0.33 0.32 -32.6 0 1 2299.25 1329.82
  L 2298.49 1330.00
  L 2296.95 1330.00
  Q 2287.16 1322.11 2278.74 1311.89
  A 2.97 2.96 -19.6 0 0 2276.44 1310.80
  L 2150.16 1310.80
  A 0.88 0.87 -75.6 0 0 2149.39 1311.26
  Q 2148.20 1313.42 2147.83 1314.04
  C 2143.13 1321.97 2131.52 1322.43 2126.26 1314.66
  C 2124.03 1311.38 2124.01 1306.88 2124.99 1303.02
  A 0.58 0.57 -59.7 0 0 2124.85 1302.48
  L 1881.32 1058.06
  A 0.65 0.64 44.7 0 0 1880.41 1058.06
  L 1820.69 1118.37
  A 0.71 0.71 0.0 0 0 1820.69 1119.37
  Q 1828.31 1127.29 1834.62 1133.52
  C 1853.23 1151.87 1875.67 1174.62 1899.77 1198.51
  Q 1941.99 1240.36 1961.51 1259.99
  Q 2003.31 1302.04 2005.27 1303.98
  Q 2010.87 1309.55 2025.96 1324.54
  Q 2029.03 1327.58 2031.24 1329.29
  A 0.23 0.23 0.0 0 1 2031.16 1329.69
  L 2030.00 1330.00
  L 2029.37 1330.00
  Q 2027.40 1329.81 2026.18 1328.57
  Q 2014.38 1316.53 2002.38 1304.81
  A 0.86 0.84 66.3 0 0 2001.79 1304.57
  L 1836.45 1304.57
  A 0.96 0.96 0.0 0 0 1835.49 1305.53
  L 1835.49 1329.07
  A 0.72 0.71 -90.0 0 1 1834.78 1329.79
  L 1833.87 1329.79
  A 0.70 0.70 0.0 0 1 1833.17 1329.09
  L 1833.17 1303.11
  A 1.16 1.16 0.0 0 1 1834.33 1301.95
  L 1998.58 1301.95
  A 0.53 0.53 0.0 0 0 1998.96 1301.04
  L 1818.49 1121.33
  A 0.35 0.35 0.0 0 0 1817.99 1121.34
  L 1781.13 1158.75
  A 3.91 3.88 -22.9 0 0 1780.01 1161.48
  L 1780.01 1223.86
  A 2.84 2.82 -22.6 0 1 1779.18 1225.86
  L 1720.88 1283.95
  A 4.42 4.39 68.0 0 0 1719.58 1287.03
  L 1719.22 1329.54
  A 0.09 0.08 -85.9 0 1 1719.14 1329.62
  L 1717.81 1329.62
  A 0.36 0.35 88.3 0 1 1717.46 1329.28
  Q 1716.67 1308.40 1716.92 1285.99
  Q 1716.94 1283.99 1718.07 1282.83
  Q 1726.15 1274.58 1764.46 1236.45
  A 0.42 0.41 45.5 0 0 1764.46 1235.86
  L 1664.99 1136.80
  A 5.15 5.12 -20.8 0 0 1661.66 1135.32
  Q 1655.03 1134.96 1655.00 1134.96
  Q 1644.03 1135.12 1608.44 1135.32
  A 0.95 0.94 17.0 0 0 1607.66 1135.73
  Q 1606.01 1138.12 1605.18 1139.17
  C 1600.56 1145.01 1591.11 1144.97 1585.96 1140.04
  A 0.54 0.53 -45.4 0 0 1585.22 1140.05
  L 1530.99 1194.09
  A 2.11 2.11 0.0 0 0 1530.36 1195.57
  Q 1530.28 1213.75 1530.31 1254.25
  Q 1530.31 1255.30 1529.21 1259.10
  A 2.45 2.43 46.6 0 0 1529.18 1260.31
  L 1530.06 1264.26
  A 10.47 10.37 -51.6 0 1 1530.31 1266.53
  L 1530.31 1306.23
  A 1.99 1.98 -22.9 0 1 1529.74 1307.62
  L 1529.15 1308.21
  A 0.67 0.67 0.0 0 1 1528.01 1307.74
  L 1528.01 1293.23
  A 0.59 0.58 0.0 0 0 1527.42 1292.65
  Q 1499.55 1292.66 1485.75 1292.91
  Q 1484.20 1292.93 1481.65 1295.41
  Q 1479.82 1297.19 1447.47 1329.67
  A 0.32 0.28 -62.9 0 1 1447.27 1329.75
  L 1443.65 1329.75
  A 0.01 0.00 -58.3 0 1 1443.65 1329.74
  L 1483.04 1290.72
  A 1.28 1.26 22.1 0 1 1483.94 1290.35
  L 1527.27 1290.35
  A 0.68 0.68 0.0 0 0 1527.95 1289.66
  Q 1527.82 1273.29 1527.99 1266.26
  Q 1528.03 1264.54 1528.71 1260.76
  A 4.47 4.44 -44.8 0 0 1528.72 1259.22
  C 1528.39 1257.30 1528.02 1255.93 1528.01 1253.57
  Q 1527.84 1207.45 1527.98 1195.01
  Q 1528.00 1193.04 1529.54 1191.54
  Q 1561.07 1160.73 1583.42 1138.05
  A 1.13 1.12 -27.1 0 0 1583.73 1137.10
  C 1583.64 1136.49 1583.04 1135.68 1582.92 1135.08
  Q 1581.35 1127.20 1586.85 1122.54
  C 1590.91 1119.10 1598.53 1118.86 1602.64 1122.09
  Q 1607.56 1125.97 1607.53 1131.85
  A 0.55 0.55 0.0 0 0 1608.08 1132.40
  Q 1611.92 1132.41 1661.28 1132.58
  Q 1664.47 1132.60 1665.93 1134.07
  Q 1679.06 1147.36 1692.20 1160.37
  Q 1731.09 1198.86 1761.48 1229.34
  Q 1764.03 1231.90 1765.76 1234.17
  A 0.52 0.51 -40.0 0 0 1766.52 1234.23
  Q 1769.56 1231.32 1775.36 1225.61
  Q 1776.95 1224.04 1777.49 1222.79
  A 2.44 2.34 -34.7 0 0 1777.68 1221.86
  Q 1777.69 1207.68 1777.71 1201.89
  Q 1777.72 1198.51 1778.33 1195.22
  C 1778.98 1191.70 1777.77 1188.43 1777.77 1184.75
  Q 1777.75 1162.47 1777.78 1160.25
  Q 1777.79 1158.67 1779.61 1156.85
  Q 1795.29 1141.22 1816.54 1119.39
  A 0.52 0.52 0.0 0 0 1816.53 1118.66
  Q 1805.47 1107.96 1795.32 1097.78
  Q 1723.67 1025.99 1674.92 977.33
  C 1672.74 975.16 1672.02 974.71 1669.10 974.66
  Q 1664.72 974.58 1661.25 974.59
  Q 1584.66 974.65 1521.01 974.38
  A 4.40 4.37 22.3 0 0 1517.91 975.66
  L 1390.86 1102.71
  A 4.71 4.67 69.6 0 0 1389.50 1105.71
  C 1388.85 1115.23 1388.80 1125.15 1387.48 1134.08
  Q 1384.40 1154.94 1377.46 1172.78
  C 1365.76 1202.85 1344.73 1227.59 1318.25 1246.12
  Q 1282.74 1270.97 1237.84 1274.64
  C 1227.92 1275.45 1217.24 1274.71 1209.49 1273.74
  Q 1205.98 1273.30 1195.02 1270.90
  C 1167.59 1264.90 1141.15 1252.24 1119.41 1233.77
  Q 1104.51 1221.13 1083.87 1200.56
  Q 1060.11 1176.87 1035.48 1151.71
  A 0.28 0.28 0.0 0 1 1035.48 1151.32
  L 1167.78 1018.46
  A 3.34 3.30 22.1 0 1 1170.14 1017.48
  L 1233.62 1017.48
  A 0.82 0.82 0.0 0 0 1234.20 1017.24
  L 1398.32 852.43
  A 1.81 1.81 0.0 0 1 1399.60 851.90
  L 1552.88 851.90
  A 0.74 0.73 -81.4 0 0 1553.58 851.38
  Q 1555.04 846.79 1559.98 846.27
  C 1567.15 845.51 1572.99 853.25 1568.40 859.63
  C 1565.78 863.28 1560.84 865.01 1556.94 862.33
  C 1554.76 860.84 1553.28 858.40 1553.41 855.69
  Q 1553.45 854.87 1553.42 854.65
  A 0.70 0.69 -3.8 0 0 1552.73 854.05
  Q 1473.80 854.08 1403.25 853.95
  C 1400.99 853.95 1400.49 853.91 1398.85 855.56
  Q 1289.04 965.67 1236.41 1018.31
  A 5.37 5.32 22.3 0 1 1232.63 1019.87
  L 1170.96 1019.87
  A 2.71 2.70 22.4 0 0 1169.05 1020.66
  L 1039.49 1150.78
  A 0.83 0.82 -44.8 0 0 1039.48 1151.94
  Q 1073.97 1187.66 1104.01 1216.73
  Q 1111.38 1223.85 1120.35 1231.39
  Q 1159.56 1264.33 1210.56 1271.38
  C 1230.88 1274.19 1251.03 1271.79 1271.32 1266.01
  C 1296.43 1258.85 1319.70 1244.36 1338.42 1226.40
  C 1365.34 1200.59 1381.68 1166.66 1385.59 1129.51
  Q 1387.02 1115.87 1387.10 1105.54
  Q 1387.13 1102.78 1388.45 1101.45
  Q 1403.48 1086.32 1516.37 973.62
  Q 1517.94 972.05 1520.00 972.06
  Q 1603.75 972.23 1666.50 972.19
  Q 1668.75 972.18 1672.91 972.44
  A 2.67 2.64 -20.6 0 1 1674.63 973.21
  L 1818.56 1117.14
  A 0.45 0.45 0.0 0 0 1819.21 1117.13
  Q 1848.50 1086.20 1878.85 1056.77
  A 0.89 0.89 0.0 0 0 1878.84 1055.49
  Q 1870.29 1047.42 1863.29 1040.46
  Q 1835.47 1012.79 1814.84 992.77
  C 1786.98 965.73 1771.59 949.83 1738.10 915.94
  A 2.51 2.43 -12.3 0 0 1737.10 915.32
  Q 1735.38 914.74 1732.75 914.72
  Q 1597.83 913.93 1453.61 914.13
  A 1.72 1.71 22.4 0 0 1452.40 914.63
  L 1223.04 1144.96
  A 0.89 0.88 -37.9 0 0 1222.90 1146.04
  C 1224.87 1149.42 1224.90 1154.62 1222.14 1157.66
  C 1214.59 1165.97 1201.95 1156.07 1207.20 1146.47
  Q 1210.07 1141.22 1216.28 1141.54
  Q 1218.30 1141.64 1219.78 1143.02
  A 1.10 1.10 0.0 0 0 1221.34 1142.98
  Q 1222.58 1141.67 1223.87 1140.37
  Q 1261.57 1102.47 1448.91 914.66
  C 1451.10 912.46 1452.02 911.50 1455.38 911.50
  Q 1611.47 911.72 1663.07 911.98
  A 0.73 0.72 0.0 0 0 1663.80 911.26
  L 1664.05 785.32
  A 0.36 0.18 53.1 0 0 1664.03 785.21
  C 1663.48 783.41 1662.16 783.07 1660.98 781.88
  Q 1628.87 749.55 1596.65 717.64
  C 1585.37 706.47 1569.60 689.71 1555.68 676.47
  C 1548.05 669.21 1542.17 662.93 1534.76 655.59
  Q 1471.20 592.61 1403.25 524.38
  A 0.45 0.38 76.3 0 0 1403.14 524.30
  Q 1401.78 523.81 1399.73 523.81
  Q 1356.89 523.85 1233.75 523.84
  Q 1209.90 523.83 1199.00 524.07
  Q 1193.70 524.19 1188.09 523.86
  A 0.50 0.50 0.0 0 0 1187.59 524.20
  Q 1185.78 529.55 1180.30 531.31
  C 1172.23 533.91 1163.86 529.84 1162.65 521.15
  C 1161.79 514.89 1166.30 509.01 1172.19 507.82
  C 1180.42 506.18 1187.86 512.02 1187.78 520.35
  A 0.99 0.99 0.0 0 0 1188.77 521.35
  Q 1284.51 521.72 1401.50 521.38
  Q 1403.68 521.38 1405.92 523.59
  Q 1429.63 547.07 1501.88 619.34
  Q 1546.62 664.10 1549.47 666.84
  A 0.49 0.48 43.7 0 0 1550.15 666.83
  L 1720.44 495.82
  A 0.92 0.92 0.0 0 0 1720.44 494.52
  L 1579.68 353.75
  A 0.87 0.86 -22.8 0 0 1579.08 353.51
  Q 1557.70 353.50 1544.20 353.41
  Q 1542.79 353.40 1540.54 352.27
  A 0.29 0.29 0.0 0 1 1540.56 351.74
  Q 1542.43 350.99 1543.52 350.99
  Q 1571.78 350.88 1575.91 350.81
  A 0.64 0.63 64.7 0 0 1576.31 349.69
  C 1569.88 344.24 1564.17 337.91 1558.36 332.20
  Q 1509.02 283.77 1463.30 238.29
  A 3.63 3.62 67.3 0 0 1460.75 237.24
  L 1376.87 237.24
  A 0.23 0.22 11.8 0 0 1376.66 237.37
  Q 1375.86 238.86 1375.47 239.77
  Q 1371.39 249.11 1361.23 247.12
  A 3.99 3.61 -23.9 0 1 1360.41 246.85
  Q 1349.83 242.06 1353.49 230.91
  C 1355.10 225.99 1359.45 223.84 1364.64 223.72
  Q 1374.48 223.50 1376.33 233.81
  A 1.09 1.09 0.0 0 0 1377.40 234.71
  L 1461.85 234.71
  A 4.48 4.47 -23.4 0 1 1464.91 235.92
  C 1471.27 241.84 1478.27 249.28 1483.71 254.68
  C 1518.93 289.61 1551.10 320.91 1583.94 353.93
  Q 1634.32 404.57 1685.07 455.18
  Q 1709.41 479.44 1722.63 492.91
  A 0.38 0.37 45.5 0 0 1723.17 492.92
  L 1755.45 460.51
  A 0.77 0.76 44.7 0 0 1755.44 459.43
  L 1714.06 418.66
  A 3.65 3.63 -68.0 0 1 1712.96 416.05
  L 1712.96 331.80
  A 1.21 1.18 23.4 0 0 1712.62 330.97
  L 1566.87 187.40
  A 0.95 0.94 49.9 0 0 1565.67 187.29
  Q 1562.96 189.12 1558.44 188.99
  C 1550.17 188.74 1545.01 181.12 1548.02 173.50
  C 1551.22 165.41 1560.84 163.13 1567.18 169.13
  C 1570.73 172.48 1570.88 176.24 1570.53 180.79
  Q 1570.38 182.76 1569.05 184.45
  A 0.80 0.79 41.6 0 0 1569.12 185.50
  L 1714.25 328.46
  A 3.62 3.61 -67.7 0 1 1715.32 331.03
  L 1715.32 414.82
  A 3.21 3.20 -67.7 0 0 1716.27 417.10
  L 1757.50 457.70
  A 0.57 0.57 0.0 0 0 1758.30 457.70
  L 1895.97 320.54
  A 2.13 2.10 -23.1 0 0 1896.58 319.06
  L 1896.58 182.42
  A 0.93 0.92 -90.0 0 0 1895.66 181.49
  L 1705.25 181.49
  A 3.00 2.98 -22.7 0 1 1703.16 180.64
  Q 1667.81 146.07 1643.10 121.13
  C 1640.39 118.40 1638.62 118.65 1634.39 118.65
  Q 1568.02 118.72 1519.00 118.60
  Q 1515.86 118.59 1508.99 118.74
  C 1504.60 118.83 1501.25 118.59 1495.68 118.59
  Q 1442.08 118.59 1403.39 118.50
  A 0.32 0.32 0.0 0 0 1403.08 118.73
  Q 1399.89 128.87 1388.69 127.36
  C 1383.08 126.61 1379.60 120.68 1379.81 115.72
  Q 1380.08 109.59 1385.02 106.50
  C 1388.63 104.25 1395.59 104.68 1398.99 107.50
  Q 1402.57 110.48 1402.84 115.32
  A 1.06 1.05 -1.4 0 0 1403.90 116.32
  L 1508.59 116.32
  A 0.33 0.33 0.0 0 0 1508.85 115.78
  Q 1506.37 112.81 1505.78 112.22
  Q 1469.99 76.59 1435.85 41.91
  Q 1427.72 33.65 1420.51 25.74
  A 3.87 3.87 0.0 0 0 1417.62 24.47
  Q 1386.98 24.53 1321.78 24.40
  Q 1319.92 24.40 1317.77 26.53
  C 1290.72 53.26 1278.13 66.07 1262.72 80.50
  Q 1254.78 87.94 1248.29 94.16
  A 0.86 0.86 0.0 0 1 1246.85 93.73
  L 1246.77 93.37
  A 1.97 1.96 62.0 0 1 1247.34 91.50
  Q 1268.09 71.84 1272.60 67.35
  Q 1297.84 42.18 1314.27 26.02
  C 1317.01 23.33 1318.48 22.10 1322.64 22.12
  Q 1378.73 22.38 1419.95 22.31
  A 1.95 1.94 -22.5 0 1 1421.36 22.89
  L 1512.67 115.49
  A 2.99 2.99 0.0 0 0 1514.81 116.39
  L 1640.45 116.39
  A 4.01 4.00 -22.6 0 1 1643.27 117.55
  L 1703.91 177.93
  A 2.63 2.62 -22.2 0 0 1705.78 178.71
  L 1897.35 178.71
  A 1.30 1.30 0.0 0 1 1898.65 180.01
  L 1898.65 320.23
  A 3.36 3.34 67.6 0 1 1897.67 322.60
  L 1759.81 459.96
  A 0.32 0.32 0.0 0 0 1759.81 460.42
  Q 1788.26 488.18 1794.41 494.73
  Q 1794.52 494.84 1795.81 496.47
  A 0.91 0.90 -46.5 0 0 1797.26 496.43
  Q 1798.66 494.46 1800.45 492.70
  C 1826.51 467.11 1851.93 442.08 1876.05 417.65
  Q 1928.39 364.65 1996.61 296.08
  A 2.26 2.24 -22.9 0 0 1997.26 294.50
  L 1997.26 140.13
  A 2.45 2.40 -68.5 0 0 1996.52 138.38
  Q 1987.31 129.57 1978.29 120.47
  Q 1976.95 119.12 1974.94 119.12
  Q 1785.41 118.79 1727.25 119.13
  Q 1723.72 119.15 1722.24 117.69
  Q 1709.51 105.15 1686.72 82.53
  C 1663.73 59.70 1632.22 29.64 1608.59 5.49
  Q 1606.05 2.90 1603.31 0.80
  A 0.37 0.37 0.0 0 1 1603.42 0.16
  L 1603.91 0.00
  L 1605.91 0.00
  Z
  M 1757.61 462.31
  Q 1745.86 474.22 1743.42 476.67
  Q 1562.47 658.37 1554.80 666.04
  Q 1553.63 667.21 1552.16 667.87
  A 0.86 0.86 0.0 0 0 1551.91 669.27
  L 1663.02 779.92
  A 0.54 0.54 0.0 0 0 1663.94 779.54
  L 1663.94 631.01
  A 2.68 2.67 67.4 0 1 1664.71 629.13
  L 1794.51 498.78
  A 0.53 0.52 -45.4 0 0 1794.51 498.03
  L 1758.25 462.31
  A 0.45 0.45 0.0 0 0 1757.61 462.31
  Z
  M 1666.45 787.05
  A 0.18 0.18 0.0 0 0 1666.14 787.18
  L 1666.14 911.61
  A 0.61 0.60 -0.0 0 0 1666.75 912.21
  L 1736.29 912.21
  A 4.78 4.75 67.5 0 1 1739.67 913.62
  C 1771.79 946.07 1786.97 961.75 1810.88 985.11
  Q 1860.50 1033.61 1879.15 1052.22
  Q 1879.70 1052.77 1880.27 1053.69
  A 0.93 0.93 0.0 0 0 1881.72 1053.86
  L 1944.21 991.11
  A 0.95 0.95 0.0 0 0 1944.06 989.65
  Q 1943.03 988.96 1941.34 987.31
  Q 1934.89 981.01 1900.12 946.12
  Q 1894.41 940.40 1868.66 913.55
  Q 1861.43 906.01 1851.32 896.31
  C 1832.72 878.47 1818.04 863.29 1793.08 838.09
  Q 1772.87 817.68 1751.56 796.95
  Q 1693.92 740.86 1669.73 716.23
  Q 1666.85 713.30 1666.72 713.16
  A 0.33 0.33 0.0 0 0 1666.14 713.38
  L 1666.16 782.08
  A 2.49 2.49 0.0 0 0 1666.89 783.84
  Q 1695.04 812.18 1707.64 824.40
  Q 1730.80 846.89 1746.52 863.00
  Q 1762.56 879.43 1799.42 916.08
  Q 1826.20 942.70 1853.61 970.77
  A 0.83 0.83 0.0 0 1 1853.23 972.15
  L 1853.18 972.16
  A 2.36 2.34 -29.5 0 1 1850.88 971.53
  C 1819.00 938.93 1789.17 909.67 1753.93 874.05
  C 1723.38 843.17 1697.79 818.46 1666.45 787.05
  Z"
/>
<path fill="#38cac7" d="
  M 1767.73 0.00
  Q 1780.38 11.32 1788.55 19.95
  Q 1790.30 21.80 1791.74 21.80
  Q 1928.49 22.03 1934.84 21.86
  A 0.30 0.30 0.0 0 0 1935.12 21.66
  Q 1935.99 19.37 1936.82 17.83
  C 1939.42 13.02 1944.83 10.87 1950.03 12.78
  Q 1955.60 14.82 1956.94 21.32
  A 0.71 0.70 -5.4 0 0 1957.64 21.89
  Q 2032.98 21.88 2059.49 22.04
  C 2061.67 22.06 2063.06 22.44 2064.73 24.09
  Q 2118.98 77.87 2140.85 99.87
  Q 2142.50 101.52 2143.10 102.86
  A 3.28 3.17 33.9 0 1 2143.38 104.17
  Q 2143.73 134.69 2143.91 145.00
  Q 2144.60 185.18 2144.78 256.01
  C 2144.78 258.38 2144.45 259.29 2142.75 260.99
  C 2084.26 319.43 2014.76 389.58 1954.82 448.22
  C 1921.12 481.19 1895.02 507.69 1857.74 544.49
  Q 1854.75 547.45 1851.42 549.84
  A 0.64 0.63 -19.4 0 1 1850.41 549.37
  Q 1850.40 549.16 1850.61 548.86
  Q 1851.45 547.66 1855.50 543.50
  Q 1856.14 542.84 1902.68 496.33
  Q 1926.88 472.15 1950.04 449.38
  Q 2022.33 378.31 2116.53 283.53
  Q 2130.90 269.08 2141.84 258.32
  A 3.30 3.27 -24.3 0 0 2142.81 255.79
  Q 2142.38 248.72 2142.34 246.25
  Q 2142.14 231.69 2141.38 117.50
  Q 2141.36 115.70 2141.12 105.31
  A 2.98 2.97 -68.3 0 0 2140.25 103.28
  L 2062.02 25.37
  A 3.64 3.62 67.1 0 0 2059.48 24.33
  L 1957.59 24.33
  A 0.79 0.77 7.1 0 0 1956.83 24.91
  Q 1954.70 33.29 1946.24 33.48
  C 1941.11 33.59 1937.02 30.04 1935.88 25.16
  A 1.11 1.11 0.0 0 0 1934.80 24.30
  L 1790.60 24.30
  A 3.92 3.91 67.1 0 1 1787.87 23.19
  L 1766.32 1.94
  A 0.91 0.74 77.6 0 0 1766.17 1.82
  Q 1763.17 -0.07 1765.47 0.00
  L 1767.73 0.00
  Z"
/>
<path fill="#38cac7" d="
  M 369.17 0.81
  A 0.56 0.56 0.0 0 1 369.62 0.26
  Q 370.28 0.14 371.03 0.24
  A 0.46 0.44 4.5 0 1 371.42 0.68
  L 371.42 135.12
  A 4.35 4.30 23.8 0 0 372.58 138.06
  Q 376.61 142.39 383.66 149.59
  Q 411.91 178.40 440.90 207.85
  Q 478.06 245.58 516.97 284.28
  Q 519.81 287.11 524.68 290.96
  A 1.30 1.29 42.4 0 1 524.77 292.92
  L 524.66 293.02
  A 1.72 1.72 0.0 0 1 522.34 293.06
  Q 520.37 291.32 517.67 288.76
  Q 504.23 276.02 481.23 252.59
  Q 426.63 196.98 389.21 159.35
  Q 379.41 149.50 370.25 139.65
  A 2.30 2.21 16.0 0 1 369.76 138.81
  Q 369.30 137.35 369.30 135.26
  Q 369.28 88.13 369.17 0.81
  Z"
/>
<path fill="#38cac7" d="
  M 450.26 0.74
  L 450.26 141.24
  A 0.55 0.55 0.0 0 0 450.42 141.63
  L 527.95 218.83
  A 0.55 0.55 0.0 0 1 527.95 219.61
  L 526.89 220.68
  A 0.55 0.55 0.0 0 1 526.11 220.68
  L 447.97 142.86
  A 0.55 0.55 0.0 0 1 447.81 142.47
  L 447.81 0.74
  A 0.55 0.55 0.0 0 1 448.36 0.19
  L 449.71 0.19
  A 0.55 0.55 0.0 0 1 450.26 0.74
  Z"
/>
<rect fill="#38cac7" x="523.46" y="0.02" width="1.98" height="175.74" rx="0.83"/>
<path fill="#38cac7" d="
  M 60.77 1330.00
  L 59.82 1330.00
  L 0.62 1329.76
  A 0.42 0.42 0.0 0 1 0.20 1329.34
  L 0.20 1329.02
  A 0.40 0.39 -0.0 0 1 0.60 1328.63
  Q 25.13 1328.67 56.75 1328.51
  Q 59.56 1328.49 60.39 1327.65
  Q 99.40 1288.21 118.58 1269.07
  Q 232.41 1155.48 344.41 1041.90
  Q 361.68 1024.39 388.55 997.57
  A 4.10 4.09 -67.3 0 1 391.47 996.37
  Q 504.77 996.47 587.00 996.38
  Q 592.70 996.37 598.25 996.60
  Q 600.44 996.69 602.16 994.91
  C 616.41 980.16 632.69 964.16 647.01 949.42
  Q 675.75 919.84 681.80 914.05
  Q 694.47 901.93 716.57 879.63
  Q 725.04 871.07 725.09 871.03
  Q 845.99 750.20 967.26 628.25
  Q 1011.21 584.05 1012.17 583.09
  A 0.35 0.34 -45.6 0 0 1012.17 582.60
  L 956.41 527.67
  A 1.05 1.05 0.0 0 0 954.93 527.68
  L 754.10 729.36
  A 0.69 0.69 0.0 0 0 754.10 730.34
  L 774.83 751.07
  A 1.10 1.10 0.0 0 1 774.83 752.62
  L 774.45 753.01
  A 0.91 0.91 0.0 0 1 773.16 753.01
  L 752.42 732.27
  A 0.42 0.42 0.0 0 0 751.82 732.27
  L 647.08 837.46
  A 2.66 2.62 22.2 0 1 645.21 838.23
  L 423.22 838.23
  A 2.49 2.49 0.0 0 0 421.45 838.97
  L 347.97 912.75
  A 0.68 0.68 0.0 0 0 348.45 913.91
  L 525.56 913.91
  A 0.66 0.65 8.3 0 0 526.19 913.45
  C 530.52 899.34 550.74 908.35 545.64 920.20
  Q 543.21 925.86 536.68 926.24
  Q 527.27 926.80 526.37 917.28
  A 0.77 0.76 87.5 0 0 525.61 916.58
  L 344.91 916.58
  A 2.56 2.56 0.0 0 0 343.10 917.33
  Q 243.94 1016.84 238.03 1022.79
  Q 233.45 1027.40 228.95 1031.95
  Q 184.49 1076.91 137.27 1124.27
  Q 122.64 1138.94 108.23 1153.48
  Q 80.04 1181.95 52.07 1210.10
  C 49.91 1212.29 48.22 1214.22 45.25 1214.64
  Q 44.81 1214.71 37.76 1214.78
  Q 20.47 1214.96 1.39 1214.74
  A 0.90 0.90 0.0 0 1 0.50 1213.84
  L 0.50 1213.49
  A 0.99 0.98 90.0 0 1 1.48 1212.50
  L 44.06 1212.50
  A 4.31 4.27 -67.3 0 0 47.09 1211.24
  L 228.95 1028.61
  A 0.56 0.55 -67.4 0 0 228.56 1027.66
  L 112.34 1027.66
  A 3.23 3.18 -66.8 0 0 110.10 1028.58
  L 1.05 1136.11
  A 0.49 0.48 -22.5 0 1 0.22 1135.77
  L 0.22 1134.07
  A 2.08 2.05 -22.6 0 1 0.84 1132.60
  L 108.42 1026.52
  A 4.60 4.59 22.5 0 1 111.62 1025.20
  Q 174.28 1025.10 226.95 1025.29
  C 228.71 1025.30 231.24 1026.27 233.00 1024.50
  Q 292.44 964.51 334.62 922.12
  Q 337.02 919.70 339.05 917.44
  A 0.49 0.48 -69.0 0 0 338.69 916.63
  L 91.96 916.63
  A 1.77 1.75 -56.6 0 0 91.25 916.78
  Q 89.49 917.57 87.77 919.27
  Q 43.01 963.59 0.89 1005.92
  A 0.41 0.41 0.0 0 1 0.19 1005.63
  L 0.19 1003.14
  A 1.50 1.50 0.0 0 1 0.63 1002.08
  Q 38.87 963.50 85.98 916.99
  Q 88.29 914.71 90.38 914.00
  A 2.07 1.92 -52.4 0 1 91.03 913.89
  L 342.43 913.89
  A 0.90 0.86 -66.0 0 0 343.04 913.64
  L 419.27 837.08
  A 3.97 3.93 -67.3 0 1 422.06 835.92
  L 644.16 835.92
  A 2.60 2.58 -67.4 0 0 645.99 835.16
  L 749.42 731.29
  A 1.23 1.22 45.3 0 0 749.42 729.57
  L 683.18 662.39
  A 0.75 0.75 0.0 0 0 682.12 662.39
  L 588.28 756.63
  A 4.34 4.32 -67.4 0 1 585.22 757.90
  Q 470.94 757.72 364.51 757.92
  Q 363.06 757.93 361.37 759.62
  Q 270.65 850.04 253.33 867.84
  C 251.01 870.22 249.58 872.60 245.82 872.59
  Q 147.52 872.53 3.50 872.56
  Q 2.94 872.56 0.82 872.40
  A 0.67 0.67 0.0 0 1 0.19 871.73
  L 0.19 871.43
  A 0.76 0.76 0.0 0 1 0.95 870.67
  L 244.84 870.67
  A 2.85 2.84 22.6 0 0 246.84 869.85
  L 360.84 755.84
  A 1.57 1.57 0.0 0 1 361.95 755.38
  L 584.91 755.38
  A 2.63 2.60 -67.3 0 0 586.76 754.61
  L 680.24 660.74
  A 1.18 1.18 0.0 0 0 680.24 659.08
  L 304.82 283.67
  A 4.13 4.13 0.0 0 0 301.90 282.46
  L 240.64 282.46
  A 2.63 2.60 67.3 0 1 238.79 281.69
  L 0.00 41.48
  L 0.00 39.35
  L 0.15 38.75
  A 0.34 0.33 29.6 0 1 0.71 38.60
  L 240.28 279.05
  A 2.54 2.52 -22.4 0 0 242.07 279.79
  L 304.09 279.79
  A 1.26 1.25 67.3 0 1 304.98 280.16
  L 682.84 658.02
  A 0.09 0.09 0.0 0 0 682.97 658.02
  L 868.32 471.58
  A 0.78 0.78 0.0 0 0 868.31 470.46
  Q 868.22 470.38 867.68 470.09
  Q 854.28 463.08 847.90 459.35
  Q 803.73 433.55 779.05 389.74
  Q 769.81 373.35 764.25 352.72
  C 751.95 307.06 757.11 257.49 780.88 216.21
  C 805.22 173.91 844.31 141.11 891.30 128.01
  Q 930.40 117.12 970.66 123.56
  Q 1009.93 129.84 1044.25 153.51
  Q 1084.53 181.28 1106.33 226.41
  Q 1110.33 234.68 1112.83 240.62
  A 1.30 1.29 66.3 0 1 1112.18 242.30
  L 1112.08 242.34
  A 1.17 1.16 -23.5 0 1 1110.52 241.73
  Q 1101.70 220.73 1091.19 204.79
  C 1071.52 174.98 1042.18 150.83 1009.19 137.11
  Q 967.48 119.77 920.68 124.92
  Q 868.51 130.66 828.02 164.28
  C 796.72 190.28 772.41 226.74 764.15 266.86
  Q 754.68 312.87 768.22 357.49
  C 783.50 407.77 822.72 447.15 870.36 468.14
  A 1.40 1.39 -55.7 0 0 871.92 467.84
  L 884.04 455.54
  A 2.43 2.40 66.5 0 0 884.73 453.75
  C 884.55 448.32 883.98 442.30 885.66 437.69
  A 0.16 0.16 0.0 0 1 885.96 437.71
  C 887.32 443.82 886.66 451.05 886.79 454.59
  A 1.47 1.41 22.0 0 0 887.23 455.57
  L 955.11 522.44
  A 1.01 1.00 -46.0 0 0 956.55 522.41
  C 982.32 495.33 1012.89 465.96 1036.95 441.19
  C 1039.51 438.55 1040.94 439.37 1044.12 439.38
  Q 1060.91 439.41 1490.50 439.46
  Q 1492.61 439.46 1494.28 439.87
  A 2.10 2.08 74.3 0 1 1495.25 440.42
  L 1536.18 481.91
  A 0.10 0.09 -47.0 0 0 1536.32 481.90
  Q 1536.38 481.83 1539.66 480.37
  Q 1541.33 479.62 1543.15 479.62
  Q 1551.24 479.63 1554.13 486.75
  C 1559.20 499.27 1542.22 507.52 1534.54 497.81
  Q 1530.15 492.25 1534.01 484.76
  A 1.43 1.43 0.0 0 0 1533.75 483.08
  L 1493.10 442.27
  A 1.27 1.22 -15.2 0 0 1492.53 441.96
  Q 1490.85 441.55 1489.13 441.54
  Q 1290.50 441.38 1041.35 441.49
  A 2.19 2.17 -67.3 0 0 1039.81 442.13
  L 957.96 524.33
  A 0.69 0.69 0.0 0 0 957.97 525.31
  L 1015.64 582.13
  A 0.68 0.67 44.7 0 1 1015.65 583.09
  Q 894.68 704.53 892.00 707.25
  Q 876.00 723.56 723.52 876.27
  Q 716.01 883.80 713.30 886.56
  Q 707.40 892.61 703.02 896.77
  Q 682.02 916.70 662.35 937.07
  C 641.36 958.80 621.91 978.48 602.72 997.71
  A 3.12 3.10 22.2 0 1 600.51 998.63
  L 392.85 998.63
  A 3.51 3.50 -67.6 0 0 390.36 999.67
  Q 344.25 1046.45 303.64 1087.39
  Q 213.17 1178.58 208.75 1183.00
  C 150.10 1241.77 125.52 1266.19 95.17 1296.93
  Q 79.67 1312.62 62.95 1328.95
  Q 62.49 1329.39 60.77 1330.00
  Z
  M 885.93 458.00
  A 0.30 0.30 0.0 0 0 885.51 458.00
  L 684.55 659.82
  A 0.30 0.30 0.0 0 0 684.55 660.24
  L 751.45 728.08
  A 0.30 0.30 0.0 0 0 751.87 728.09
  L 953.64 525.47
  A 0.30 0.30 0.0 0 0 953.64 525.05
  L 885.93 458.00
  Z"
/>
<path fill="#38cac7" d="
  M 741.76 477.03
  L 741.73 477.05
  A 1.18 1.16 -38.3 0 1 740.21 476.88
  Q 709.20 443.50 692.40 401.63
  Q 668.57 342.26 674.61 278.03
  Q 681.69 202.62 726.92 142.92
  Q 754.36 106.70 793.41 80.91
  Q 836.09 52.72 887.25 43.52
  Q 903.99 40.50 917.63 39.71
  Q 936.96 38.59 959.31 39.59
  Q 967.13 39.94 974.16 40.97
  Q 987.92 42.99 988.96 43.15
  Q 1028.48 49.21 1064.46 68.04
  C 1104.42 88.97 1139.91 120.36 1164.83 157.89
  Q 1190.87 197.12 1201.01 244.82
  A 1.20 1.20 0.0 0 1 1199.99 246.26
  L 1199.87 246.27
  A 1.38 1.37 80.6 0 1 1198.34 245.17
  Q 1196.83 237.31 1195.85 233.64
  Q 1177.82 166.16 1127.93 117.57
  C 1089.46 80.10 1040.81 53.54 987.78 45.45
  Q 981.24 44.45 975.69 43.70
  C 965.10 42.25 960.33 42.37 948.00 41.66
  C 934.82 40.89 920.24 41.95 909.05 42.95
  Q 889.92 44.66 868.28 50.37
  Q 814.51 64.55 772.00 100.04
  C 754.14 114.96 737.66 132.11 724.34 150.80
  Q 686.41 204.01 677.91 269.68
  Q 673.77 301.66 677.69 333.99
  Q 685.98 402.29 726.09 456.05
  C 731.10 462.76 736.83 469.17 741.97 475.64
  A 0.97 0.96 -36.7 0 1 741.76 477.03
  Z"
/>
<path fill="#38cac7" d="
  M 885.50 376.51
  Q 886.59 380.13 886.64 381.69
  Q 886.75 385.53 886.72 429.30
  C 886.72 431.39 886.40 432.88 885.92 435.01
  A 0.26 0.26 0.0 0 1 885.42 435.03
  Q 884.81 433.07 884.74 430.75
  Q 884.51 423.40 884.81 414.56
  A 1.66 1.64 12.8 0 0 883.81 412.99
  Q 882.05 412.23 880.50 411.26
  C 846.53 390.06 822.79 358.59 818.18 318.52
  Q 817.79 315.18 817.75 307.18
  Q 817.70 296.17 817.71 295.82
  Q 818.44 275.47 825.98 258.18
  C 840.93 223.92 870.30 195.67 907.63 185.95
  C 929.20 180.33 949.90 179.81 971.39 185.03
  C 991.67 189.96 1010.62 201.64 1025.34 216.16
  Q 1041.59 232.18 1064.51 255.34
  C 1091.65 282.77 1114.19 304.60 1144.80 335.20
  Q 1163.22 353.62 1169.12 359.13
  Q 1169.94 359.90 1169.61 360.59
  A 1.46 1.45 35.4 0 1 1167.27 360.98
  Q 1121.08 314.89 1100.93 295.01
  Q 1080.59 274.94 1061.42 255.54
  Q 1037.66 231.49 1021.31 215.71
  Q 1010.24 205.02 994.60 196.68
  Q 971.94 184.60 945.26 183.98
  C 913.08 183.24 882.54 193.66 859.05 215.79
  Q 837.63 235.97 827.06 262.28
  Q 821.42 276.33 820.47 290.51
  Q 820.11 295.78 820.17 307.35
  Q 820.23 317.26 821.43 324.11
  C 826.03 350.24 839.02 373.48 858.39 391.39
  Q 867.71 400.01 876.33 405.67
  Q 881.54 409.10 884.26 410.89
  A 0.26 0.26 0.0 0 0 884.67 410.67
  Q 884.62 383.44 884.77 379.50
  Q 884.88 376.53 884.96 376.42
  A 0.31 0.31 0.0 0 1 885.50 376.51
  Z"
/>
<path fill="#38cac7" d="
  M 364.31 459.32
  Q 370.74 454.07 378.41 458.12
  Q 383.51 460.81 383.89 467.11
  C 384.34 474.57 379.37 479.57 372.09 479.82
  C 365.08 480.06 360.34 474.15 360.55 467.44
  C 360.62 465.22 361.84 463.62 362.09 461.63
  A 1.16 1.15 26.1 0 0 361.76 460.67
  L 298.79 397.47
  A 3.28 3.28 0.0 0 0 296.47 396.51
  L 217.74 396.51
  A 2.38 2.34 66.7 0 1 216.10 395.84
  Q 167.62 348.67 119.00 299.00
  Q 80.08 259.24 43.64 222.61
  C 41.40 220.36 36.13 220.79 33.50 220.81
  Q 17.09 220.89 1.14 220.60
  A 0.68 0.68 0.0 0 1 0.47 219.92
  L 0.47 219.16
  A 0.68 0.68 0.0 0 1 1.14 218.48
  Q 29.66 217.96 41.76 218.43
  Q 43.60 218.50 45.27 220.22
  Q 53.75 228.98 80.47 256.28
  Q 135.90 312.93 193.14 369.91
  C 201.75 378.48 209.86 385.74 216.78 392.83
  A 3.38 3.36 -22.1 0 0 219.19 393.84
  L 296.80 393.84
  A 4.61 4.61 0.0 0 1 300.06 395.19
  L 363.93 459.30
  A 0.29 0.28 -41.8 0 0 364.31 459.32
  Z"
/>
<path fill="#38cac7" d="
  M 886.18 363.19
  A 0.33 0.32 -45.8 0 1 885.61 363.20
  Q 884.79 361.77 884.73 359.75
  Q 884.54 353.20 884.57 343.07
  A 1.87 1.86 -22.4 0 1 885.13 341.74
  L 940.99 285.87
  A 1.19 1.18 59.7 0 0 941.29 284.71
  Q 939.12 277.12 944.36 272.57
  Q 948.61 268.88 954.45 270.58
  C 961.78 272.71 964.72 282.35 959.59 288.23
  C 955.39 293.04 947.38 293.31 943.27 288.24
  A 0.70 0.69 -41.8 0 0 942.24 288.19
  L 890.24 340.20
  A 0.54 0.54 0.0 0 0 890.62 341.12
  L 1003.93 341.12
  A 1.05 1.05 0.0 0 0 1004.98 340.11
  Q 1005.33 331.75 1013.43 329.44
  C 1017.86 328.17 1024.61 330.31 1026.99 334.69
  C 1029.87 339.99 1029.10 347.27 1023.56 350.53
  C 1016.59 354.63 1007.59 352.25 1005.04 344.02
  A 0.53 0.53 0.0 0 0 1004.53 343.64
  L 887.48 343.64
  A 0.77 0.77 0.0 0 0 886.71 344.40
  Q 886.71 359.51 886.61 361.53
  Q 886.57 362.46 886.18 363.19
  Z"
/>
<path fill="#38cac7" d="
  M 0.98 334.56
  Q 3.56 334.81 9.76 334.66
  Q 12.10 334.61 13.32 335.82
  Q 31.83 354.36 52.92 374.85
  A 1.90 1.88 66.8 0 0 54.23 375.38
  L 152.42 375.38
  A 1.35 1.33 68.2 0 1 153.40 375.81
  Q 160.77 383.76 166.24 389.23
  Q 272.97 495.97 384.44 607.29
  C 385.75 608.60 388.44 608.34 391.04 608.35
  Q 416.14 608.42 452.40 608.34
  A 0.79 0.78 90.0 0 0 453.18 607.55
  L 453.18 539.96
  A 1.30 1.30 0.0 0 0 452.05 538.67
  C 440.87 537.21 438.07 523.59 447.41 517.47
  C 451.64 514.70 457.90 515.15 461.56 518.72
  Q 466.14 523.19 464.84 530.00
  Q 463.56 536.74 456.14 538.61
  A 0.68 0.68 0.0 0 0 455.63 539.27
  L 455.63 609.74
  A 0.71 0.71 0.0 0 1 454.92 610.45
  L 385.11 610.45
  A 2.67 2.65 67.2 0 1 383.24 609.68
  L 151.92 378.36
  A 1.47 1.47 0.0 0 0 150.88 377.93
  L 53.35 377.93
  A 3.17 3.15 -22.5 0 1 51.13 377.02
  Q 38.32 364.35 17.43 343.73
  Q 15.62 341.95 12.59 338.31
  Q 11.47 336.95 8.99 336.91
  Q 4.84 336.84 1.09 337.16
  A 0.83 0.82 -2.3 0 1 0.20 336.34
  L 0.20 335.26
  A 0.71 0.70 2.9 0 1 0.98 334.56
  Z"
/>
<path fill="#38cac7" d="
  M 1536.52 352.48
  Q 1535.41 353.45 1531.52 353.44
  Q 1413.95 353.09 1275.50 353.38
  Q 1250.43 353.43 1247.92 353.53
  A 0.48 0.48 0.0 0 0 1247.47 353.94
  C 1246.55 360.07 1240.34 364.02 1234.46 362.02
  Q 1228.28 359.91 1227.18 353.34
  C 1226.02 346.32 1232.87 340.60 1239.72 342.10
  Q 1246.38 343.55 1247.27 350.25
  A 1.26 1.26 0.0 0 0 1248.57 351.33
  Q 1258.82 350.86 1268.26 350.85
  Q 1371.41 350.80 1528.51 350.87
  Q 1534.70 350.88 1536.44 351.76
  A 0.44 0.44 0.0 0 1 1536.52 352.48
  Z"
/>
<path fill="#38cac7" d="
  M 0.00 445.75
  L 0.00 445.12
  L 0.14 444.74
  A 0.71 0.71 0.0 0 1 0.81 444.27
  L 14.91 444.27
  A 1.12 1.11 6.1 0 0 16.00 443.40
  C 17.60 436.14 24.65 432.72 31.35 435.21
  C 35.81 436.87 40.42 443.56 37.83 448.75
  A 1.06 1.05 -54.3 0 0 38.03 449.98
  L 57.97 469.62
  A 3.90 3.88 67.3 0 0 60.71 470.75
  Q 68.13 470.75 151.23 470.80
  C 154.53 470.80 155.66 473.27 158.54 476.17
  Q 275.41 593.63 283.92 602.29
  Q 303.52 622.26 325.25 643.75
  Q 326.01 644.49 327.59 647.17
  A 0.84 0.84 0.0 0 0 328.33 647.58
  Q 358.78 647.50 376.24 647.71
  Q 378.14 647.73 379.32 648.40
  A 0.25 0.24 -36.4 0 1 379.25 648.85
  Q 374.34 649.93 373.23 649.94
  Q 363.09 650.06 329.14 650.09
  A 1.51 1.51 0.0 0 0 327.89 650.78
  Q 326.75 652.58 324.93 654.43
  Q 321.70 657.70 245.99 733.25
  Q 244.01 735.23 242.30 735.95
  A 1.78 1.76 33.2 0 1 241.61 736.09
  L 155.83 736.09
  A 2.12 2.11 -68.7 0 0 154.27 736.78
  Q 150.24 741.21 142.92 748.23
  C 134.50 756.29 127.32 763.85 116.91 774.16
  Q 115.40 775.66 114.13 776.29
  A 1.06 1.00 -56.9 0 1 113.67 776.40
  L 0.97 776.40
  A 0.60 0.60 0.0 0 1 0.37 775.80
  L 0.37 774.55
  A 0.61 0.61 0.0 0 1 0.98 773.94
  L 112.55 773.94
  A 2.16 2.12 -67.1 0 0 114.06 773.31
  L 152.95 734.26
  A 2.13 2.12 22.4 0 1 154.45 733.64
  L 240.53 733.64
  A 1.96 1.92 -56.2 0 0 241.30 733.48
  Q 242.92 732.79 244.95 730.70
  Q 248.54 727.00 322.70 652.95
  Q 323.36 652.29 325.84 649.11
  A 0.96 0.94 -49.1 0 0 325.76 647.84
  Q 307.95 630.31 282.69 604.81
  Q 156.77 477.71 155.70 476.92
  Q 155.68 476.90 154.49 475.42
  Q 152.88 473.42 149.77 473.41
  Q 105.40 473.26 60.02 473.48
  A 4.57 4.55 -22.7 0 1 56.82 472.17
  L 37.24 452.89
  A 0.91 0.90 45.7 0 0 35.99 452.87
  Q 30.12 458.38 23.14 455.74
  Q 17.43 453.57 16.42 447.64
  A 0.90 0.90 0.0 0 0 15.53 446.89
  L 1.04 446.89
  A 0.84 0.84 0.0 0 1 0.27 446.38
  L 0.00 445.75
  Z"
/>
<path fill="#38cac7" d="
  M 2196.48 902.13
  A 0.63 0.63 0.0 0 1 2196.61 900.89
  L 2204.55 900.44
  A 0.90 0.90 0.0 0 0 2205.40 899.46
  Q 2205.35 898.98 2205.34 896.50
  Q 2205.03 846.77 2205.17 811.12
  Q 2205.18 809.81 2203.31 807.96
  Q 2179.74 784.61 2168.30 773.54
  A 1.63 1.62 22.0 0 1 2167.80 772.37
  L 2167.80 687.00
  A 2.12 2.10 -22.7 0 1 2168.42 685.51
  L 2363.95 489.15
  A 0.36 0.36 0.0 0 1 2364.56 489.41
  L 2364.56 492.08
  A 1.23 1.23 0.0 0 1 2364.20 492.95
  Q 2281.45 575.81 2172.40 685.15
  Q 2170.43 687.12 2169.82 688.38
  A 0.69 0.65 59.5 0 0 2169.75 688.68
  L 2169.75 769.79
  A 3.14 3.13 -67.9 0 0 2170.69 772.03
  L 2207.19 808.19
  A 1.67 1.64 22.6 0 1 2207.69 809.37
  L 2207.69 902.36
  A 0.53 0.53 0.0 0 1 2207.20 902.89
  Q 2201.15 903.39 2196.48 902.13
  Z"
/>
<path fill="#38cac7" d="
  M 203.55 625.67
  C 204.26 625.42 205.02 624.72 205.80 624.40
  Q 211.33 622.12 216.16 624.82
  C 221.72 627.93 222.41 635.35 219.59 640.38
  C 216.36 646.17 207.29 647.47 202.62 641.90
  Q 197.27 635.52 201.61 628.32
  A 0.47 0.46 38.3 0 0 201.54 627.75
  L 118.61 542.23
  A 2.32 2.31 -22.0 0 0 116.95 541.53
  L 0.72 541.53
  A 0.54 0.54 0.0 0 1 0.18 540.99
  L 0.18 540.10
  A 0.52 0.51 88.2 0 1 0.66 539.58
  Q 1.50 539.53 2.50 539.54
  Q 73.74 539.90 118.00 539.79
  C 120.63 539.79 120.55 540.59 122.04 542.12
  Q 154.11 574.89 189.64 612.01
  C 193.28 615.82 198.81 620.86 202.67 625.43
  A 0.81 0.81 0.0 0 0 203.55 625.67
  Z"
/>
<path fill="#38cac7" d="
  M 437.99 1329.21
  C 438.36 1328.71 440.27 1327.55 441.28 1326.54
  Q 513.82 1253.83 585.65 1181.05
  A 1.79 1.78 67.3 0 0 586.16 1179.80
  L 586.16 1072.34
  A 0.64 0.64 0.0 0 0 585.52 1071.70
  L 462.46 1071.70
  A 3.53 3.51 22.2 0 0 459.96 1072.74
  L 204.47 1329.31
  A 1.67 1.66 -67.4 0 1 203.29 1329.80
  L 200.68 1329.80
  A 0.14 0.14 0.0 0 1 200.58 1329.56
  Q 211.37 1319.12 227.15 1303.15
  Q 317.82 1211.41 364.64 1164.64
  Q 375.67 1153.61 385.00 1144.25
  Q 425.58 1103.53 457.67 1071.67
  C 459.51 1069.84 460.42 1069.37 463.18 1069.38
  Q 550.48 1069.58 645.83 1069.33
  A 2.48 2.46 22.0 0 0 647.55 1068.61
  Q 672.97 1043.09 719.81 996.24
  C 741.22 974.83 759.86 955.45 781.09 933.84
  Q 812.45 901.90 817.18 897.18
  Q 858.28 856.11 894.83 820.41
  C 916.32 799.43 937.60 777.18 962.29 752.53
  Q 1008.15 706.75 1052.37 662.37
  Q 1079.81 634.83 1095.73 619.18
  A 2.73 2.73 0.0 0 1 1097.71 618.38
  Q 1126.20 618.67 1131.00 618.70
  Q 1160.45 618.89 1307.42 618.75
  C 1324.73 618.74 1338.37 618.47 1353.76 618.49
  Q 1356.23 618.49 1357.52 619.83
  Q 1391.52 655.04 1429.20 692.69
  C 1464.66 728.13 1505.67 770.18 1539.20 802.58
  Q 1543.16 806.42 1557.48 819.39
  A 1.13 1.13 0.0 0 1 1557.51 821.04
  L 1557.47 821.08
  A 1.31 1.30 43.8 0 1 1555.69 821.11
  Q 1550.25 816.27 1546.05 811.81
  C 1542.99 808.56 1539.60 806.77 1536.47 803.68
  Q 1491.27 758.93 1464.94 732.20
  C 1435.22 702.03 1402.67 670.10 1377.22 643.74
  Q 1366.77 632.92 1356.04 622.32
  A 3.97 3.96 67.3 0 0 1353.25 621.17
  Q 1340.76 621.16 1328.00 621.12
  Q 1169.85 620.64 1120.50 621.07
  Q 1105.07 621.21 1097.98 621.35
  A 1.98 1.96 -67.6 0 0 1096.61 621.93
  Q 1045.96 672.21 1014.06 704.31
  Q 996.47 722.02 988.81 729.54
  C 965.55 752.38 938.79 779.34 920.55 798.06
  Q 913.57 805.23 899.64 818.89
  Q 872.91 845.09 821.65 896.06
  C 807.97 909.67 794.86 923.56 780.98 937.33
  Q 776.10 942.17 764.78 953.92
  Q 747.43 971.94 730.85 988.60
  Q 690.73 1028.91 648.53 1070.92
  A 0.75 0.75 0.0 0 0 648.31 1071.45
  L 648.31 1255.83
  A 4.65 4.63 -22.7 0 1 646.96 1259.10
  L 576.86 1329.50
  A 0.31 0.30 -69.3 0 1 576.67 1329.59
  L 573.43 1329.97
  A 0.13 0.13 0.0 0 1 573.32 1329.75
  L 644.95 1257.41
  A 3.80 3.79 -22.7 0 0 646.05 1254.74
  L 646.05 1072.89
  A 1.12 1.12 0.0 0 0 644.93 1071.77
  L 588.55 1071.77
  A 0.44 0.43 0.0 0 0 588.11 1072.20
  L 588.11 1180.81
  A 3.33 3.30 -23.0 0 1 587.16 1183.13
  Q 525.67 1245.36 445.11 1326.29
  C 442.96 1328.45 441.51 1330.45 438.21 1329.78
  A 0.37 0.36 -66.4 0 1 437.99 1329.21
  Z"
/>
<path fill="#38cac7" d="
  M 123.31 637.18
  C 123.30 650.11 104.37 651.48 102.84 638.84
  A 0.83 0.82 -3.5 0 0 102.02 638.12
  L 1.00 638.12
  A 0.65 0.65 0.0 0 1 0.36 637.59
  Q 0.32 637.37 0.32 637.05
  Q 0.32 636.73 0.36 636.51
  A 0.65 0.65 0.0 0 1 1.00 635.98
  L 102.02 636.19
  A 0.83 0.82 3.6 0 0 102.84 635.47
  C 104.39 622.84 123.32 624.24 123.31 637.18
  Z"
/>
<path fill="#38cac7" d="
  M 2309.90 691.51
  C 2312.60 696.19 2312.38 703.57 2307.95 707.12
  C 2302.73 711.31 2296.18 711.54 2291.36 706.67
  C 2287.75 703.02 2286.75 697.46 2289.34 692.75
  Q 2292.76 686.52 2301.24 686.79
  Q 2304.96 686.90 2307.69 689.35
  A 0.54 0.53 -51.2 0 0 2308.48 689.26
  Q 2310.20 686.88 2311.65 685.40
  Q 2315.43 681.55 2363.77 632.44
  A 0.46 0.46 0.0 0 1 2364.55 632.76
  L 2364.55 634.78
  A 2.15 2.12 67.6 0 1 2363.94 636.28
  L 2309.99 690.75
  A 0.64 0.63 52.4 0 0 2309.90 691.51
  Z"
/>
<path fill="#38cac7" d="
  M 433.37 648.07
  Q 434.48 647.74 439.75 647.71
  Q 468.03 647.53 532.58 647.58
  A 0.94 0.94 0.0 0 0 533.52 646.67
  Q 533.65 642.45 536.57 639.63
  C 540.14 636.17 546.81 635.61 550.77 638.21
  C 557.17 642.42 557.87 651.88 551.99 657.04
  C 545.31 662.91 535.91 659.05 533.47 651.13
  A 1.36 1.36 0.0 0 0 532.20 650.17
  Q 524.43 649.98 507.75 650.00
  Q 454.97 650.04 440.69 649.93
  Q 439.50 649.92 433.37 648.35
  A 0.15 0.14 -45.6 0 1 433.37 648.07
  Z"
/>
<path fill="#38cac7" d="
  M 1807.22 705.34
  L 1809.18 706.31
  A 5.07 5.06 -9.5 0 1 1810.49 707.24
  C 1825.13 721.66 1837.33 734.69 1852.40 748.68
  Q 1878.68 773.06 1908.36 803.48
  Q 1925.23 820.77 1937.09 832.51
  A 0.74 0.74 0.0 0 1 1936.80 833.74
  L 1936.54 833.82
  A 2.19 2.17 57.6 0 1 1934.35 833.32
  Q 1929.48 828.62 1909.25 807.97
  Q 1875.68 773.71 1861.55 760.77
  Q 1857.02 756.63 1856.46 756.10
  Q 1831.24 732.40 1805.47 705.85
  A 0.85 0.84 -37.0 0 0 1804.43 705.71
  L 1802.07 707.07
  A 2.46 2.43 29.2 0 1 1800.88 707.40
  Q 1791.71 707.65 1788.72 700.16
  Q 1787.21 696.36 1788.69 692.31
  C 1792.79 681.13 1809.76 684.07 1810.49 696.24
  C 1810.72 700.19 1808.95 701.87 1807.00 704.34
  A 0.66 0.66 0.0 0 0 1807.22 705.34
  Z"
/>
<path fill="#38cac7" d="
  M 796.64 1330.00
  Q 796.27 1330.00 795.89 1330.00
  Q 795.06 1322.59 795.06 1314.75
  Q 795.13 1166.78 795.12 1075.65
  C 795.12 1063.38 794.73 1051.24 794.85 1039.07
  A 3.68 3.68 0.0 0 1 796.00 1036.42
  Q 801.16 1031.55 805.60 1027.10
  C 881.07 951.66 949.93 882.30 1023.99 808.38
  Q 1081.33 751.15 1119.44 712.94
  C 1121.15 711.23 1123.83 707.97 1126.28 707.99
  Q 1129.92 708.01 1244.45 707.85
  A 0.81 0.81 0.0 0 0 1245.26 707.09
  Q 1245.40 705.05 1247.03 703.26
  C 1252.54 697.23 1262.81 697.98 1266.59 705.42
  C 1272.13 716.33 1259.73 727.52 1249.68 720.55
  Q 1245.08 717.36 1244.72 711.18
  A 0.68 0.68 0.0 0 0 1244.04 710.53
  Q 1184.41 710.46 1128.50 710.52
  C 1126.15 710.53 1125.39 710.64 1123.66 712.31
  Q 1115.13 720.50 1100.26 735.51
  Q 1064.81 771.32 1023.63 812.37
  C 949.92 885.84 869.90 966.52 804.36 1031.86
  Q 801.52 1034.69 798.90 1036.93
  A 4.29 4.27 -20.6 0 0 797.39 1040.23
  C 797.48 1049.88 797.10 1059.99 797.09 1070.27
  Q 797.06 1153.63 797.22 1302.25
  Q 797.24 1316.18 796.64 1330.00
  Z"
/>
<path fill="#38cac7" d="
  M 1082.82 1330.00
  L 1081.34 1330.00
  Q 1080.01 1329.67 1079.17 1328.83
  Q 976.30 1226.92 972.77 1223.46
  Q 966.26 1217.09 961.68 1210.81
  Q 960.65 1209.39 960.68 1206.02
  Q 961.04 1171.61 960.73 1108.38
  A 2.90 2.89 -22.6 0 1 961.59 1106.30
  C 981.18 1086.80 1001.44 1065.91 1024.09 1043.51
  Q 1033.53 1034.17 1072.41 994.66
  Q 1088.09 978.73 1139.30 927.31
  Q 1141.30 925.30 1143.49 925.26
  C 1154.55 925.08 1164.94 924.80 1176.01 925.66
  Q 1182.28 926.15 1188.52 925.71
  C 1199.73 924.93 1211.27 925.07 1219.98 925.04
  A 2.74 2.71 -67.6 0 0 1221.88 924.24
  L 1362.46 783.07
  A 0.58 0.57 46.5 0 0 1362.48 782.29
  C 1361.48 781.17 1360.24 779.66 1359.88 778.12
  C 1355.52 759.38 1383.92 757.32 1384.12 774.97
  C 1384.23 785.10 1372.64 789.46 1364.80 784.64
  A 0.39 0.39 0.0 0 0 1364.32 784.70
  L 1223.12 926.50
  A 3.60 3.57 22.2 0 1 1220.57 927.56
  L 1144.38 927.56
  A 4.24 4.22 -67.3 0 0 1141.40 928.79
  C 1105.78 964.13 1067.28 1003.77 1032.40 1038.58
  Q 990.19 1080.69 972.29 1099.04
  Q 968.94 1102.48 964.82 1106.33
  Q 963.46 1107.60 963.45 1109.50
  Q 963.34 1132.70 963.41 1206.75
  C 963.41 1210.14 966.21 1212.28 968.33 1214.63
  Q 972.68 1219.43 980.17 1226.89
  Q 1042.93 1289.38 1081.78 1327.89
  A 3.43 3.06 -3.3 0 0 1082.36 1328.35
  Q 1084.98 1330.03 1082.82 1330.00
  Z"
/>
<path fill="#38cac7" d="
  M 2364.08 769.89
  A 0.26 0.26 0.0 0 1 2364.53 770.07
  L 2364.53 772.69
  A 1.38 1.36 68.2 0 1 2364.12 773.67
  L 2317.64 820.87
  A 2.02 2.02 0.0 0 0 2317.25 823.16
  C 2320.75 830.51 2316.09 837.81 2308.23 838.52
  A 0.51 0.51 0.0 0 0 2307.76 839.03
  L 2307.76 934.12
  A 1.27 1.26 0.0 0 1 2306.49 935.38
  L 2194.20 935.38
  A 0.82 0.79 -67.6 0 0 2193.62 935.63
  L 2098.73 1030.52
  A 1.45 1.44 45.1 0 0 2098.73 1032.57
  L 2219.52 1152.85
  A 3.29 3.25 67.1 0 0 2221.82 1153.80
  L 2364.03 1153.80
  A 0.46 0.46 0.0 0 1 2364.49 1154.30
  L 2364.38 1155.91
  A 0.42 0.42 0.0 0 1 2363.95 1156.31
  Q 2363.65 1156.30 2361.48 1156.26
  Q 2349.74 1156.02 2227.25 1155.96
  C 2224.47 1155.96 2218.90 1156.30 2216.85 1154.16
  C 2206.82 1143.71 2194.01 1131.29 2186.84 1124.08
  Q 2163.91 1100.98 2128.59 1065.72
  C 2116.16 1053.31 2105.55 1043.46 2094.54 1031.71
  A 0.47 0.47 0.0 0 1 2094.55 1031.05
  L 2190.98 934.61
  A 4.07 4.05 -67.3 0 1 2193.84 933.43
  L 2303.85 933.43
  A 1.31 1.30 -90.0 0 0 2305.15 932.12
  L 2305.15 839.30
  A 1.07 1.05 -79.6 0 0 2304.48 838.31
  C 2292.65 833.60 2294.13 815.97 2308.32 816.47
  Q 2312.03 816.60 2314.84 819.08
  A 0.60 0.58 -46.4 0 0 2315.65 819.05
  L 2364.08 769.89
  Z"
/>
<path fill="#38cac7" d="
  M 970.47 1330.00
  L 969.37 1330.00
  Q 968.14 1329.66 967.36 1328.89
  Q 920.05 1281.96 890.68 1252.48
  Q 889.85 1251.65 889.86 1248.60
  Q 890.04 1173.29 889.82 1084.13
  A 3.69 3.68 -22.7 0 1 890.90 1081.50
  C 915.27 1057.13 939.35 1031.98 961.89 1009.37
  Q 1024.00 947.06 1071.49 899.99
  Q 1098.54 873.18 1126.25 845.50
  Q 1133.20 838.56 1157.11 814.86
  Q 1160.57 811.42 1164.07 808.44
  A 1.21 1.20 51.8 0 0 1164.26 806.82
  L 1162.91 804.94
  A 2.31 2.29 -65.6 0 1 1162.47 803.75
  Q 1161.97 798.08 1162.72 796.24
  Q 1166.06 788.12 1175.00 788.95
  C 1181.68 789.57 1185.72 794.64 1185.64 801.21
  C 1185.54 808.72 1179.12 812.90 1171.81 812.02
  Q 1169.81 811.77 1166.58 809.99
  A 0.77 0.77 0.0 0 0 1165.67 810.11
  Q 1095.18 880.14 1001.66 973.41
  C 984.09 990.93 952.66 1022.32 927.11 1048.68
  Q 911.77 1064.51 893.26 1082.48
  A 3.51 3.45 -22.4 0 0 892.20 1084.97
  Q 892.24 1174.56 892.21 1248.00
  C 892.21 1249.96 892.50 1250.81 893.93 1252.24
  Q 936.66 1294.89 967.67 1325.80
  Q 968.48 1326.60 970.38 1328.12
  Q 973.09 1330.28 970.47 1330.00
  Z"
/>
<path fill="#38cac7" d="
  M 2154.62 901.38
  L 2154.91 901.66
  A 0.76 0.76 0.0 0 1 2154.37 902.95
  L 2136.57 902.95
  A 2.67 2.65 -67.2 0 0 2134.70 903.72
  L 2073.91 964.29
  A 1.37 1.36 53.3 0 0 2073.68 965.91
  C 2077.95 973.72 2073.69 983.16 2064.26 982.82
  C 2057.00 982.56 2055.26 976.50 2054.68 970.37
  A 3.05 2.90 -43.6 0 1 2054.72 969.53
  Q 2056.40 961.03 2064.66 961.36
  Q 2068.17 961.50 2070.64 963.17
  A 0.86 0.86 0.0 0 0 2071.74 963.07
  L 2132.81 901.74
  A 3.94 3.92 22.3 0 1 2135.60 900.58
  L 2152.69 900.58
  A 2.73 2.73 0.0 0 1 2154.62 901.38
  Z"
/>
<path fill="#38cac7" d="
  M 2364.53 917.71
  L 2364.53 920.12
  A 1.86 1.83 68.1 0 1 2363.98 921.44
  L 2272.15 1013.27
  A 3.65 3.65 0.0 0 1 2269.56 1014.35
  L 2213.28 1014.35
  A 4.15 4.14 22.7 0 0 2210.37 1015.54
  L 2182.24 1043.28
  A 0.95 0.95 0.0 0 0 2182.23 1044.63
  L 2224.02 1087.01
  A 3.07 3.06 -22.1 0 0 2226.21 1087.93
  L 2312.45 1087.93
  A 0.90 0.90 0.0 0 0 2313.35 1087.00
  C 2313.24 1083.39 2315.17 1080.37 2318.57 1078.74
  C 2326.37 1074.99 2335.17 1080.83 2334.11 1089.80
  C 2333.44 1095.44 2328.03 1098.93 2322.71 1098.46
  Q 2315.98 1097.87 2313.66 1091.04
  A 0.82 0.81 80.4 0 0 2312.89 1090.49
  L 2224.55 1090.49
  A 1.74 1.71 67.5 0 1 2223.32 1089.97
  L 2178.40 1044.42
  A 0.62 0.61 -44.7 0 1 2178.41 1043.56
  L 2209.08 1012.89
  A 3.76 3.74 -67.4 0 1 2211.73 1011.79
  L 2268.26 1011.79
  A 3.36 3.34 22.4 0 0 2270.63 1010.81
  L 2363.97 917.48
  A 0.33 0.33 0.0 0 1 2364.53 917.71
  Z"
/>
<path fill="#38cac7" d="
  M 1339.16 1330.00
  L 1338.03 1330.00
  L 1336.56 1329.67
  A 0.34 0.34 0.0 0 1 1336.41 1329.09
  C 1337.13 1328.43 1338.09 1328.11 1338.90 1327.29
  Q 1362.78 1303.14 1390.36 1276.43
  C 1395.27 1271.67 1398.53 1267.88 1404.44 1261.20
  Q 1442.18 1218.62 1452.27 1162.81
  C 1453.29 1157.13 1453.85 1151.22 1454.63 1145.46
  Q 1455.06 1142.28 1456.91 1140.41
  Q 1545.87 1050.65 1557.96 1038.21
  C 1561.81 1034.25 1564.15 1034.66 1569.68 1034.66
  Q 1595.11 1034.67 1642.22 1034.76
  A 0.41 0.40 -0.0 0 1 1642.63 1035.16
  L 1642.63 1036.59
  A 0.58 0.58 0.0 0 1 1642.05 1037.17
  L 1563.62 1037.17
  A 2.71 2.68 21.9 0 0 1561.69 1037.98
  Q 1509.85 1090.80 1458.57 1142.06
  Q 1457.05 1143.58 1456.62 1147.98
  Q 1451.55 1199.32 1423.11 1241.11
  Q 1410.44 1259.72 1393.00 1276.99
  Q 1365.97 1303.76 1339.16 1330.00
  Z"
/>
<path fill="#38cac7" d="
  M 294.03 1330.00
  L 292.87 1330.00
  L 291.41 1329.65
  A 0.31 0.30 -56.0 0 1 291.31 1329.10
  C 292.28 1328.40 293.25 1327.85 294.19 1326.88
  Q 351.36 1268.56 406.30 1213.51
  C 426.22 1193.55 454.34 1164.51 478.30 1140.63
  A 1.69 1.69 0.0 0 0 478.64 1138.73
  Q 475.07 1131.00 481.25 1125.61
  C 486.80 1120.77 495.73 1123.48 497.26 1130.99
  C 498.29 1136.07 496.42 1141.41 491.35 1143.23
  Q 485.75 1145.25 481.52 1141.82
  A 0.70 0.69 -49.2 0 0 480.56 1141.90
  Q 476.63 1146.33 473.14 1149.89
  Q 426.00 1197.95 368.80 1255.40
  C 347.24 1277.05 323.35 1301.63 300.43 1324.68
  Q 296.47 1328.65 294.03 1330.00
  Z"
/>
<path fill="#38cac7" d="
  M 699.53 1329.61
  Q 698.07 1330.01 696.40 1329.74
  A 0.08 0.08 0.0 0 1 696.35 1329.61
  L 726.08 1299.81
  A 3.21 3.17 -10.9 0 0 726.74 1298.85
  Q 727.14 1297.95 727.15 1295.25
  Q 727.21 1226.87 727.16 1154.63
  A 1.43 1.42 7.8 0 0 726.11 1153.26
  C 720.46 1151.67 716.79 1147.01 717.27 1140.84
  Q 717.82 1133.83 725.01 1131.27
  C 729.28 1129.75 736.38 1130.58 739.26 1134.67
  C 745.10 1142.95 740.17 1152.46 730.13 1153.44
  A 0.56 0.55 -2.9 0 0 729.63 1153.99
  L 729.63 1297.82
  A 4.88 4.88 0.0 0 1 728.19 1301.28
  L 699.77 1329.48
  A 0.49 0.48 15.9 0 1 699.53 1329.61
  Z"
/>
<path fill="#38cac7" d="
  M 1637.22 1214.65
  C 1650.23 1214.63 1653.59 1231.46 1641.86 1236.73
  A 1.68 1.62 -59.5 0 1 1641.38 1236.86
  L 1638.11 1237.27
  A 0.54 0.53 -11.3 0 0 1637.66 1237.94
  Q 1638.38 1240.52 1638.39 1241.75
  Q 1638.40 1281.73 1638.52 1329.19
  A 0.24 0.23 68.8 0 1 1638.45 1329.36
  Q 1638.03 1329.79 1637.43 1329.79
  Q 1636.82 1329.79 1636.40 1329.36
  A 0.24 0.23 -69.0 0 1 1636.33 1329.19
  Q 1636.28 1281.73 1636.15 1241.75
  Q 1636.15 1240.52 1636.86 1237.94
  A 0.54 0.53 11.1 0 0 1636.41 1237.27
  L 1633.14 1236.87
  A 1.68 1.62 59.3 0 1 1632.66 1236.74
  C 1620.91 1231.52 1624.21 1214.68 1637.22 1214.65
  Z"
/>
<path fill="#38cac7" d="
  M 178.56 1329.66
  L 190.62 1317.96
  A 0.58 0.58 0.0 0 0 190.72 1317.24
  Q 185.67 1308.94 192.72 1301.97
  C 195.68 1299.04 201.62 1299.16 204.86 1300.96
  Q 208.59 1303.03 209.84 1306.99
  Q 211.43 1312.04 208.88 1316.75
  Q 206.08 1321.90 199.41 1321.67
  C 196.91 1321.59 195.13 1321.55 193.45 1320.02
  A 1.10 1.10 0.0 0 0 191.92 1320.06
  L 182.72 1329.40
  A 1.28 1.26 22.1 0 1 181.82 1329.77
  L 178.61 1329.77
  A 0.07 0.06 22.4 0 1 178.56 1329.66
  Z"
/>
<path fill="#38cac7" d="
  M 1528.26 1329.75
  A 0.41 0.41 0.0 0 1 1527.85 1329.34
  L 1527.85 1329.15
  A 9.56 1.03 89.9 0 1 1528.86 1319.59
  L 1529.30 1319.59
  A 9.56 1.03 89.9 0 1 1530.35 1329.15
  L 1530.35 1329.34
  A 0.41 0.41 0.0 0 1 1529.94 1329.75
  L 1528.26 1329.75
  Z"
/>
</svg>
