<svg xmlns="http://www.w3.org/2000/svg" xmlns:xlink="http://www.w3.org/1999/xlink" width="4838" zoomAndPan="magnify" viewBox="0 0 3628.5 2040.749966" height="2721" preserveAspectRatio="xMidYMid meet" version="1.0"><defs><filter x="0%" y="0%" width="100%" height="100%" id="1dfa76a6bf"><feColorMatrix values="0 0 0 0 1 0 0 0 0 1 0 0 0 0 1 0 0 0 1 0" color-interpolation-filters="sRGB"/></filter><clipPath id="9d45650115"><path d="M 0 0.015625 L 3628 0.015625 L 3628 2040.484375 L 0 2040.484375 Z M 0 0.015625 " clip-rule="nonzero"/></clipPath><clipPath id="5828592dac"><path d="M 0 0.015625 L 3627.652344 0.015625 L 3627.652344 2040.289062 L 0 2040.289062 Z M 0 0.015625 " clip-rule="nonzero"/></clipPath><clipPath id="7208a51b30"><path d="M 0 0.015625 L 3627.820312 0.015625 L 3627.820312 2040.484375 L 0 2040.484375 Z M 0 0.015625 " clip-rule="nonzero"/></clipPath><mask id="6663c062b7"><g filter="url(#1dfa76a6bf)"><rect x="-798.27" width="5225.04" fill="#000000" y="-448.964993" height="2938.679951" fill-opacity="0.42"/></g></mask><clipPath id="13520b84a0"><path d="M 0 0.015625 L 3627.488281 0.015625 L 3627.488281 2040.476562 L 0 2040.476562 Z M 0 0.015625 " clip-rule="nonzero"/></clipPath><clipPath id="113eb020ca"><path d="M 2 0.015625 L 3627.488281 0.015625 L 3627.488281 2040.476562 L 2 2040.476562 Z M 2 0.015625 " clip-rule="nonzero"/></clipPath><clipPath id="d4bb996839"><rect x="0" width="3628" y="0" height="2041"/></clipPath><clipPath id="e74f959851"><rect x="0" width="3628" y="0" height="2041"/></clipPath><clipPath id="b3aa14ba4b"><rect x="0" width="3628" y="0" height="2041"/></clipPath></defs><g clip-path="url(#9d45650115)"><path fill="#ffffff" d="M 0 0.015625 L 3628 0.015625 L 3628 2040.484375 L 0 2040.484375 Z M 0 0.015625 " fill-opacity="1" fill-rule="nonzero"/><g transform="matrix(1, 0, 0, 1, 0, -0.000000000000236405)"><g clip-path="url(#b3aa14ba4b)"><g clip-path="url(#5828592dac)"><path fill="#ffffff" d="M 0 0.015625 L 3627.652344 0.015625 L 3627.652344 2040.289062 L 0 2040.289062 Z M 0 0.015625 " fill-opacity="1" fill-rule="nonzero"/></g><g clip-path="url(#7208a51b30)"><g mask="url(#6663c062b7)"><g transform="matrix(1, 0, 0, 1, 0, -0.000000000000236405)"><g clip-path="url(#e74f959851)"><g clip-path="url(#13520b84a0)"><g transform="matrix(1, 0, 0, 1, 0, -0.000000000000236405)"><g clip-path="url(#d4bb996839)"><g clip-path="url(#113eb020ca)"><path fill="#003735" d="M 3627.488281 2040.476562 L 2 2040.476562 L 2 -17.453125 L 3627.488281 -17.453125 Z M 3627.488281 2040.476562 " fill-opacity="1" fill-rule="nonzero"/></g></g></g></g></g></g></g></g></g></g></g></svg>