<svg xmlns="http://www.w3.org/2000/svg" xmlns:xlink="http://www.w3.org/1999/xlink" width="4838" zoomAndPan="magnify" viewBox="0 0 3628.5 2040.749966" height="2721" preserveAspectRatio="xMidYMid meet" version="1.0"><defs><filter x="0%" y="0%" width="100%" height="100%" id="e2048d1019"><feColorMatrix values="0 0 0 0 1 0 0 0 0 1 0 0 0 0 1 0 0 0 1 0" color-interpolation-filters="sRGB"/></filter><clipPath id="a37a74e1ed"><path d="M 0 0.015625 L 3628 0.015625 L 3628 2040.484375 L 0 2040.484375 Z M 0 0.015625 " clip-rule="nonzero"/></clipPath><clipPath id="428d4fd377"><path d="M 0 0.015625 L 3627.652344 0.015625 L 3627.652344 2040.289062 L 0 2040.289062 Z M 0 0.015625 " clip-rule="nonzero"/></clipPath><clipPath id="ed83059f6c"><path d="M 0 626 L 2534 626 L 2534 2040.484375 L 0 2040.484375 Z M 0 626 " clip-rule="nonzero"/></clipPath><mask id="4706f3890c"><g filter="url(#e2048d1019)"><rect x="-798.27" width="5225.04" fill="#000000" y="-448.964993" height="2938.679951" fill-opacity="0.42"/></g></mask><clipPath id="4bb822f139"><path d="M 0 0.152344 L 2532.863281 0.152344 L 2532.863281 1414.484375 L 0 1414.484375 Z M 0 0.152344 " clip-rule="nonzero"/></clipPath><clipPath id="a20e097f38"><path d="M 0 0.152344 L 2532.863281 0.152344 L 2532.863281 1414.484375 L 0 1414.484375 Z M 0 0.152344 " clip-rule="nonzero"/></clipPath><clipPath id="eee979f0d3"><rect x="0" width="2533" y="0" height="1415"/></clipPath><clipPath id="2e8d74a095"><rect x="0" width="2534" y="0" height="1415"/></clipPath><clipPath id="4931883ac9"><path d="M 1910 1175 L 3628 1175 L 3628 2040.484375 L 1910 2040.484375 Z M 1910 1175 " clip-rule="nonzero"/></clipPath><mask id="d394ebab06"><g filter="url(#e2048d1019)"><rect x="-798.27" width="5225.04" fill="#000000" y="-448.964993" height="2938.679951" fill-opacity="0.42"/></g></mask><clipPath id="6fb2ab4b81"><path d="M 6.230469 0.183594 L 1718 0.183594 L 1718 865.484375 L 6.230469 865.484375 Z M 6.230469 0.183594 " clip-rule="nonzero"/></clipPath><clipPath id="9b85d15eae"><path d="M 2 0.183594 L 1712 0.183594 L 1712 865.484375 L 2 865.484375 Z M 2 0.183594 " clip-rule="nonzero"/></clipPath><clipPath id="cc002cf343"><rect x="0" width="1712" y="0" height="866"/></clipPath><clipPath id="bf65b7a570"><rect x="0" width="1718" y="0" height="866"/></clipPath><clipPath id="df4baefcce"><rect x="0" width="3628" y="0" height="2041"/></clipPath></defs><g clip-path="url(#a37a74e1ed)"><path fill="#ffffff" d="M 0 0.015625 L 3628 0.015625 L 3628 2040.484375 L 0 2040.484375 Z M 0 0.015625 " fill-opacity="1" fill-rule="nonzero"/><g transform="matrix(1, 0, 0, 1, 0, -0.000000000000236405)"><g clip-path="url(#df4baefcce)"><g clip-path="url(#428d4fd377)"><path fill="#93aaa9" d="M 0 0.015625 L 3627.652344 0.015625 L 3627.652344 2040.289062 L 0 2040.289062 Z M 0 0.015625 " fill-opacity="1" fill-rule="nonzero"/></g><g clip-path="url(#ed83059f6c)"><g mask="url(#4706f3890c)"><g transform="matrix(1, 0, 0, 1, 0, 626)"><g clip-path="url(#2e8d74a095)"><g clip-path="url(#4bb822f139)"><g transform="matrix(1, 0, 0, 1, 0, -0.000000000000227374)"><g clip-path="url(#eee979f0d3)"><g clip-path="url(#a20e097f38)"><path fill="#003735" d="M 2532.863281 2058.082031 L -1092.628906 2058.082031 L -1092.628906 0.152344 L 2532.863281 0.152344 Z M 2532.863281 2058.082031 " fill-opacity="1" fill-rule="nonzero"/></g></g></g></g></g></g></g></g><g clip-path="url(#4931883ac9)"><g mask="url(#d394ebab06)"><g transform="matrix(1, 0, 0, 1, 1910, 1175)"><g clip-path="url(#bf65b7a570)"><g clip-path="url(#6fb2ab4b81)"><g transform="matrix(1, 0, 0, 1, 6, -0.000000000000227374)"><g clip-path="url(#cc002cf343)"><g clip-path="url(#9b85d15eae)"><path fill="#003735" d="M 3627.730469 2058.113281 L 2.242188 2058.113281 L 2.242188 0.183594 L 3627.730469 0.183594 Z M 3627.730469 2058.113281 " fill-opacity="1" fill-rule="nonzero"/></g></g></g></g></g></g></g></g></g></g></g></svg>