<svg xmlns="http://www.w3.org/2000/svg" xmlns:xlink="http://www.w3.org/1999/xlink" width="1400" zoomAndPan="magnify" viewBox="0 0 1050 1049.999947" height="1400" preserveAspectRatio="xMidYMid meet" version="1.0"><defs><clipPath id="c237ce2299"><path d="M 39 40 L 1011 40 L 1011 1012 L 39 1012 Z M 39 40 " clip-rule="nonzero"/></clipPath><clipPath id="24b080c7dd"><path d="M 168.855469 -588.492188 L 1222.054688 -411.320312 L 876.542969 1642.570312 L -176.660156 1465.398438 Z M 168.855469 -588.492188 " clip-rule="nonzero"/></clipPath><clipPath id="1d840a9484"><path d="M 96.9375 -161 L 1150.140625 16.171875 L 949.328125 1209.898438 L -103.875 1032.726562 Z M 96.9375 -161 " clip-rule="nonzero"/></clipPath><clipPath id="dd30a0bbe2"><path d="M 168.863281 -588.558594 L 1222.066406 -411.386719 L 876.554688 1642.503906 L -176.648438 1465.332031 Z M 168.863281 -588.558594 " clip-rule="nonzero"/></clipPath><clipPath id="ce47b83ce9"><path d="M 153 199 L 853 199 L 853 854 L 153 854 Z M 153 199 " clip-rule="nonzero"/></clipPath><clipPath id="aec1215168"><path d="M 168.855469 -588.492188 L 1222.054688 -411.320312 L 876.542969 1642.570312 L -176.660156 1465.398438 Z M 168.855469 -588.492188 " clip-rule="nonzero"/></clipPath><clipPath id="01a31fd8ba"><path d="M 96.9375 -161 L 1150.140625 16.171875 L 949.328125 1209.898438 L -103.875 1032.726562 Z M 96.9375 -161 " clip-rule="nonzero"/></clipPath><clipPath id="eacfdf91f5"><path d="M 168.863281 -588.558594 L 1222.066406 -411.386719 L 876.554688 1642.503906 L -176.648438 1465.332031 Z M 168.863281 -588.558594 " clip-rule="nonzero"/></clipPath><clipPath id="7855af4a59"><path d="M 150 196 L 856 196 L 856 857 L 150 857 Z M 150 196 " clip-rule="nonzero"/></clipPath><clipPath id="620fdf124f"><path d="M 168.855469 -588.492188 L 1222.054688 -411.320312 L 876.542969 1642.570312 L -176.660156 1465.398438 Z M 168.855469 -588.492188 " clip-rule="nonzero"/></clipPath><clipPath id="396868fd10"><path d="M 96.9375 -161 L 1150.140625 16.171875 L 949.328125 1209.898438 L -103.875 1032.726562 Z M 96.9375 -161 " clip-rule="nonzero"/></clipPath><clipPath id="65936f0b89"><path d="M 168.863281 -588.558594 L 1222.066406 -411.386719 L 876.554688 1642.503906 L -176.648438 1465.332031 Z M 168.863281 -588.558594 " clip-rule="nonzero"/></clipPath><clipPath id="ba6da02164"><path d="M 650 842 L 653 842 L 653 845 L 650 845 Z M 650 842 " clip-rule="nonzero"/></clipPath><clipPath id="5fa8cd9388"><path d="M 168.855469 -588.492188 L 1222.054688 -411.320312 L 876.542969 1642.570312 L -176.660156 1465.398438 Z M 168.855469 -588.492188 " clip-rule="nonzero"/></clipPath><clipPath id="168adc08fd"><path d="M 96.9375 -161 L 1150.140625 16.171875 L 949.328125 1209.898438 L -103.875 1032.726562 Z M 96.9375 -161 " clip-rule="nonzero"/></clipPath><clipPath id="6a357eeaa8"><path d="M 168.863281 -588.558594 L 1222.066406 -411.386719 L 876.554688 1642.503906 L -176.648438 1465.332031 Z M 168.863281 -588.558594 " clip-rule="nonzero"/></clipPath></defs><g clip-path="url(#c237ce2299)"><g clip-path="url(#24b080c7dd)"><g clip-path="url(#1d840a9484)"><g clip-path="url(#dd30a0bbe2)"><path fill="#01c500" d="M 446.742188 363.015625 C 447.1875 363.089844 447.625 363.175781 448.054688 363.265625 C 465.761719 367.035156 472.285156 384.914062 477.773438 400.085938 L 477.976562 400.65625 L 478.046875 400.839844 L 478.046875 400.84375 C 478.921875 403.261719 479.78125 405.636719 480.660156 407.894531 C 482.785156 413.363281 485.054688 418.265625 487.167969 422.832031 L 487.1875 422.875 L 487.207031 422.914062 C 488.984375 426.757812 490.664062 430.382812 492.003906 433.835938 C 494.578125 440.449219 496.03125 446.683594 494.609375 453.101562 C 491.757812 466 477.28125 478.972656 463.121094 491.40625 C 462.929688 491.574219 462.851562 491.835938 462.921875 492.082031 C 462.949219 492.175781 462.996094 492.261719 463.058594 492.332031 L 463.054688 492.332031 C 475.097656 511.015625 487.234375 529.714844 503.375 550.382812 C 519.085938 570.503906 537.976562 591.632812 552.925781 594.816406 C 553.210938 594.875 553.484375 594.929688 553.765625 594.976562 C 554.535156 595.105469 555.292969 595.183594 556.03125 595.210938 C 564.425781 595.496094 571.582031 589.011719 579.28125 581.886719 L 579.820312 581.386719 C 585.265625 576.347656 591.011719 571.117188 597.367188 569.242188 C 597.367188 569.242188 597.367188 569.242188 597.367188 569.238281 C 600.574219 568.292969 603.871094 568.207031 607.203125 568.769531 C 607.59375 568.835938 608 568.910156 608.390625 568.996094 C 620.519531 571.574219 633.703125 582.546875 646.402344 593.132812 L 646.8125 593.476562 L 646.816406 593.480469 L 647.714844 594.230469 L 648.632812 594.992188 C 665.785156 609.296875 683.691406 624.722656 679.214844 642.746094 C 674.679688 661 647.230469 680.976562 627.261719 689.308594 C 612.203125 695.59375 600.882812 695.515625 590.660156 693.796875 C 589.074219 693.53125 587.53125 693.226562 585.988281 692.898438 C 583.988281 692.472656 582.015625 692.011719 580.0625 691.550781 C 579.996094 691.535156 579.925781 691.515625 579.855469 691.492188 L 579.851562 691.488281 C 579.835938 691.484375 579.824219 691.476562 579.8125 691.472656 L 579.699219 691.425781 L 579.699219 691.429688 L 579.699219 691.425781 C 550.902344 679.804688 521.976562 668.078125 478.257812 623.105469 C 434.722656 578.320312 375.910156 499.921875 370.15625 446.304688 C 364.550781 394.089844 408.9375 365.746094 436.304688 362.808594 C 436.3125 362.808594 436.316406 362.808594 436.324219 362.808594 L 436.320312 362.808594 C 437.40625 362.691406 438.460938 362.613281 439.496094 362.578125 C 439.503906 362.578125 439.511719 362.578125 439.523438 362.578125 L 439.519531 362.574219 C 442.09375 362.484375 444.496094 362.636719 446.742188 363.015625 Z M 574.179688 265.027344 C 564.320312 263.371094 554.386719 262.253906 544.429688 261.675781 C 525.285156 260.5625 506.074219 261.433594 487.210938 264.246094 C 408.582031 275.96875 336.082031 321.390625 297.921875 387.140625 C 259.722656 452.96875 255.816406 539.371094 262.636719 581.183594 C 266.238281 603.269531 272.816406 612.761719 277.65625 619.738281 C 277.683594 619.777344 277.789062 619.929688 277.789062 619.929688 C 282.089844 626.125 285.328125 630.847656 283.511719 640.464844 C 279.941406 659.371094 256.441406 698.558594 232.546875 737.988281 C 232.414062 738.210938 232.421875 738.488281 232.566406 738.699219 C 232.585938 738.722656 232.601562 738.746094 232.621094 738.769531 L 232.617188 738.769531 C 232.6875 738.847656 232.777344 738.90625 232.878906 738.945312 C 232.917969 738.960938 232.960938 738.972656 233 738.980469 C 233.078125 738.992188 233.160156 738.992188 233.238281 738.976562 L 233.234375 738.972656 C 269.605469 732.683594 305.78125 726.675781 331.582031 728.171875 L 331.578125 728.171875 L 331.589844 728.171875 C 335.296875 728.390625 338.8125 728.761719 342.09375 729.3125 C 343.425781 729.539062 344.722656 729.792969 345.976562 730.078125 C 345.988281 730.082031 346 730.082031 346.015625 730.085938 L 346.019531 730.085938 C 352.65625 731.601562 358.105469 733.988281 362.917969 736.957031 C 369.730469 741.160156 375.242188 746.523438 380.941406 752.074219 L 381.03125 752.164062 L 381.109375 752.238281 C 387.648438 758.609375 394.53125 765.292969 404.183594 771.246094 C 420.140625 781.089844 443.777344 789 471.785156 793.710938 C 483.515625 795.683594 496.03125 797.097656 509.074219 797.859375 C 512.179688 798.039062 515.363281 798.183594 518.527344 798.289062 C 566.574219 799.875 620.457031 792.582031 675.816406 755.414062 C 731.296875 718.167969 788.117188 651.035156 798.21875 569.6875 C 808.328125 488.273438 771.703125 392.328125 711.035156 333.382812 C 672.550781 295.984375 624.367188 273.472656 574.179688 265.027344 Z M 327.019531 785.652344 L 327.027344 785.660156 Z M 327.027344 785.660156 L 327.03125 785.660156 L 327.03125 785.664062 Z M 651.253906 842.550781 C 651.277344 842.554688 651.285156 842.558594 651.308594 842.5625 C 651.875 842.6875 652.234375 843.246094 652.109375 843.816406 C 651.988281 844.363281 651.457031 844.71875 650.914062 844.628906 C 650.890625 844.625 650.871094 844.617188 650.855469 844.617188 C 650.289062 844.488281 649.929688 843.929688 650.054688 843.367188 L 650.054688 843.363281 C 650.175781 842.8125 650.707031 842.460938 651.253906 842.550781 Z M 589.035156 200.851562 C 627.410156 207.304688 666.042969 221.808594 703.230469 246.910156 C 772.273438 293.515625 836.34375 376.667969 851.453125 475.371094 C 866.554688 574.046875 832.714844 688.207031 761.433594 759.46875 C 697.152344 823.734375 602.519531 853.015625 526.847656 856.046875 L 526.839844 856.046875 C 518.585938 856.378906 510.578125 856.394531 502.828125 856.113281 C 490.582031 855.664062 479.066406 854.464844 468.160156 852.628906 C 409.167969 842.707031 368.027344 814.21875 327.113281 785.714844 L 327.082031 785.695312 L 327.054688 785.675781 L 327.03125 785.660156 L 327.015625 785.652344 C 326.878906 785.574219 326.730469 785.519531 326.574219 785.492188 C 326.449219 785.472656 326.328125 785.46875 326.203125 785.484375 C 275 791.296875 223.851562 797.097656 191.582031 799.332031 L 191.5625 799.332031 C 187.773438 799.597656 184.242188 799.808594 180.96875 799.941406 L 180.964844 799.941406 C 174.378906 800.203125 168.542969 800.160156 163.769531 799.355469 C 155.601562 797.984375 150.914062 794.511719 150.601562 786.679688 C 150.457031 783.066406 151.289062 778.613281 153.054688 773.175781 C 161.386719 747.515625 191.1875 697.847656 220.988281 648.238281 L 220.984375 648.238281 C 221.195312 647.945312 221.28125 647.570312 221.203125 647.195312 L 221.195312 647.152344 C 208.015625 584.308594 194.894531 521.214844 207.78125 458.679688 C 220.734375 395.824219 259.925781 333.640625 310.636719 287.347656 C 361.367188 241.039062 423.667969 210.597656 491.851562 200.402344 C 503.496094 198.664062 515.320312 197.511719 527.253906 197.035156 C 547.597656 196.21875 568.28125 197.359375 589.035156 200.851562 Z M 605.976562 47.035156 C 341.625 2.566406 91.269531 180.828125 46.796875 445.199219 C 2.324219 709.566406 180.570312 959.933594 444.921875 1004.402344 C 709.273438 1048.871094 959.628906 870.609375 1004.101562 606.238281 C 1048.574219 341.871094 870.328125 91.503906 605.976562 47.035156 Z M 605.976562 47.035156 " fill-opacity="1" fill-rule="nonzero"/></g></g></g></g><g clip-path="url(#ce47b83ce9)"><g clip-path="url(#aec1215168)"><g clip-path="url(#01a31fd8ba)"><g clip-path="url(#eacfdf91f5)"><path fill="#fefefe" d="M 446.828125 362.519531 C 444.542969 362.136719 442.109375 361.980469 439.5 362.074219 L 439.585938 362.082031 L 439.484375 362.074219 C 439.480469 362.074219 439.476562 362.074219 439.476562 362.074219 C 438.429688 362.113281 437.359375 362.191406 436.265625 362.308594 L 436.394531 362.3125 L 436.261719 362.308594 L 436.257812 362.308594 C 436.257812 362.308594 436.253906 362.308594 436.253906 362.308594 C 408.710938 365.265625 364.011719 393.777344 369.65625 446.359375 C 375.429688 500.164062 434.367188 578.675781 477.898438 623.453125 C 521.683594 668.5 550.679688 680.257812 579.511719 691.894531 L 579.621094 691.9375 L 579.628906 691.941406 L 579.625 691.941406 C 579.660156 691.960938 579.703125 691.972656 579.742188 691.984375 L 579.738281 691.980469 C 579.804688 692.003906 579.871094 692.023438 579.9375 692.039062 C 579.949219 692.042969 579.964844 692.046875 579.976562 692.050781 L 579.984375 692.050781 C 581.929688 692.507812 583.886719 692.964844 585.882812 693.390625 C 585.890625 693.394531 585.894531 693.394531 585.902344 693.394531 C 585.90625 693.398438 585.910156 693.398438 585.917969 693.398438 L 585.921875 693.398438 C 587.46875 693.726562 588.984375 694.023438 590.574219 694.292969 C 600.878906 696.027344 612.296875 696.097656 627.453125 689.773438 C 647.4375 681.433594 675.105469 661.375 679.703125 642.867188 C 684.265625 624.492188 666.035156 608.855469 649.007812 594.65625 L 649.003906 594.652344 C 648.988281 594.636719 648.972656 594.621094 648.953125 594.605469 L 648.035156 593.84375 L 647.136719 593.09375 L 647.136719 593.089844 L 647.132812 593.089844 L 646.722656 592.75 L 646.726562 592.75 L 646.683594 592.714844 C 634.050781 582.183594 620.792969 571.140625 608.542969 568.515625 L 608.539062 568.515625 C 608.523438 568.511719 608.511719 568.507812 608.496094 568.503906 C 608.101562 568.417969 607.679688 568.339844 607.285156 568.273438 C 603.890625 567.703125 600.515625 567.785156 597.222656 568.757812 C 590.734375 570.671875 584.902344 576 579.480469 581.019531 L 579.210938 581.269531 L 578.941406 581.515625 C 571.1875 588.691406 564.195312 594.984375 556.046875 594.707031 C 555.332031 594.683594 554.601562 594.605469 553.847656 594.480469 C 553.589844 594.4375 553.335938 594.390625 553.074219 594.335938 L 553.066406 594.332031 C 553.054688 594.332031 553.042969 594.328125 553.03125 594.324219 C 538.3125 591.191406 519.554688 570.285156 503.8125 550.132812 L 503.808594 550.132812 C 503.796875 550.113281 503.785156 550.09375 503.769531 550.074219 C 487.667969 529.453125 475.550781 510.796875 463.527344 492.140625 L 463.523438 492.140625 C 463.5 492.089844 463.472656 492.042969 463.4375 492.003906 C 463.421875 491.984375 463.410156 491.964844 463.40625 491.941406 C 463.386719 491.886719 463.40625 491.824219 463.449219 491.785156 C 477.558594 479.398438 492.203125 466.304688 495.101562 453.210938 C 496.554688 446.648438 495.058594 440.300781 492.472656 433.652344 C 491.125 430.183594 489.441406 426.546875 487.664062 422.703125 L 487.644531 422.664062 L 487.625 422.621094 L 487.558594 422.476562 C 485.464844 417.953125 483.226562 413.105469 481.128906 407.714844 C 480.253906 405.464844 479.402344 403.109375 478.527344 400.695312 L 478.519531 400.671875 L 478.449219 400.484375 L 478.246094 399.914062 C 472.785156 384.816406 466.1875 366.613281 448.160156 362.773438 C 447.730469 362.683594 447.265625 362.59375 446.828125 362.519531 Z M 574.101562 265.492188 C 624.203125 273.921875 672.296875 296.394531 710.710938 333.71875 C 771.277344 392.570312 807.84375 488.375 797.753906 569.628906 C 787.671875 650.804688 730.960938 717.824219 675.554688 755.023438 C 620.300781 792.121094 566.523438 799.40625 518.542969 797.820312 C 515.382812 797.714844 512.203125 797.570312 509.101562 797.386719 C 496.078125 796.632812 483.574219 795.21875 471.863281 793.246094 C 443.886719 788.542969 420.316406 780.644531 404.429688 770.847656 C 394.828125 764.921875 387.976562 758.273438 381.4375 751.902344 L 381.359375 751.828125 L 381.269531 751.738281 C 381.21875 751.691406 381.21875 751.6875 381.171875 751.640625 C 375.511719 746.128906 369.988281 740.765625 363.164062 736.554688 C 358.3125 733.5625 352.816406 731.160156 346.128906 729.632812 L 346.125 729.632812 L 346.179688 729.648438 L 346.09375 729.621094 L 346.078125 729.621094 C 344.8125 729.332031 343.515625 729.074219 342.171875 728.847656 C 338.871094 728.292969 335.339844 727.921875 331.617188 727.703125 L 331.601562 727.703125 C 305.738281 726.203125 269.503906 732.222656 233.15625 738.511719 L 233.296875 738.511719 L 233.144531 738.515625 C 233.125 738.519531 233.097656 738.519531 233.078125 738.515625 C 233.066406 738.515625 233.054688 738.511719 233.042969 738.507812 C 233.027344 738.5 233.007812 738.492188 232.992188 738.480469 L 232.992188 738.476562 C 232.984375 738.46875 232.976562 738.460938 232.972656 738.453125 C 232.964844 738.449219 232.960938 738.445312 232.957031 738.433594 C 232.914062 738.375 232.914062 738.296875 232.949219 738.234375 C 256.8125 698.855469 280.382812 659.566406 283.972656 640.550781 C 285.820312 630.761719 282.503906 625.898438 278.207031 619.710938 L 278.203125 619.710938 C 278.195312 619.691406 278.1875 619.675781 278.175781 619.664062 C 278.175781 619.664062 278.175781 619.660156 278.171875 619.65625 C 278.167969 619.652344 278.167969 619.648438 278.164062 619.648438 C 278.140625 619.609375 278.074219 619.511719 278.042969 619.472656 C 273.226562 612.527344 266.6875 603.101562 263.101562 581.105469 C 256.292969 539.371094 260.195312 453.085938 298.328125 387.378906 C 336.40625 321.765625 408.773438 276.417969 487.28125 264.710938 C 506.109375 261.90625 525.292969 261.035156 544.402344 262.144531 C 554.339844 262.722656 564.257812 263.835938 574.101562 265.492188 Z M 588.542969 203.765625 C 567.996094 200.308594 547.515625 199.179688 527.375 199.988281 C 515.550781 200.460938 503.832031 201.601562 492.285156 203.328125 C 424.707031 213.429688 362.941406 243.605469 312.628906 289.53125 C 262.285156 335.488281 223.476562 397.148438 210.675781 459.277344 C 197.871094 521.421875 211.015625 584.222656 224.289062 647.496094 C 224.386719 647.96875 224.304688 648.457031 224.054688 648.871094 L 223.957031 649.035156 C 193.898438 699.074219 164.105469 748.710938 155.867188 774.085938 C 154.148438 779.382812 153.429688 783.453125 153.554688 786.5625 C 153.777344 792.179688 156.90625 795.21875 164.210938 796.445312 C 168.308594 797.136719 173.765625 797.269531 180.847656 796.988281 C 184.0625 796.859375 187.621094 796.644531 191.378906 796.382812 C 223.753906 794.144531 275.214844 788.300781 326.742188 782.449219 L 326.746094 782.449219 L 326.753906 782.445312 L 326.75 782.445312 L 326.773438 782.445312 C 326.945312 782.425781 327.121094 782.429688 327.292969 782.457031 C 327.566406 782.503906 327.832031 782.613281 328.066406 782.773438 C 369.179688 811.417969 410.019531 839.855469 468.636719 849.714844 C 479.433594 851.53125 490.824219 852.714844 502.9375 853.160156 C 510.597656 853.4375 518.554688 853.421875 526.730469 853.09375 C 601.871094 850.085938 695.722656 820.984375 759.34375 757.378906 C 829.910156 686.828125 863.503906 573.628906 848.53125 475.820312 C 833.566406 378.066406 770.0625 295.585938 701.574219 249.359375 C 664.769531 224.515625 626.539062 210.15625 588.542969 203.765625 Z M 588.542969 203.765625 " fill-opacity="1" fill-rule="nonzero"/></g></g></g></g><g clip-path="url(#7855af4a59)"><g clip-path="url(#620fdf124f)"><g clip-path="url(#396868fd10)"><g clip-path="url(#65936f0b89)"><path fill="#01c500" d="M 588.539062 203.789062 C 626.53125 210.179688 664.757812 224.539062 701.5625 249.378906 C 770.042969 295.605469 833.542969 378.078125 848.503906 475.824219 C 863.476562 573.625 829.886719 686.816406 759.324219 757.359375 C 695.710938 820.957031 601.863281 850.058594 526.730469 853.066406 C 518.550781 853.394531 510.601562 853.414062 502.9375 853.132812 C 490.828125 852.691406 479.4375 851.503906 468.640625 849.691406 C 410.03125 839.828125 369.199219 811.402344 328.089844 782.757812 L 328.085938 782.757812 L 328.082031 782.753906 C 327.84375 782.589844 327.574219 782.480469 327.296875 782.433594 C 327.121094 782.402344 326.945312 782.398438 326.769531 782.417969 L 326.753906 782.421875 L 326.738281 782.421875 C 275.207031 788.273438 223.753906 794.117188 191.375 796.359375 L 191.359375 796.359375 C 187.617188 796.617188 184.050781 796.832031 180.847656 796.960938 C 173.765625 797.246094 168.308594 797.109375 164.214844 796.421875 C 156.917969 795.195312 153.804688 792.160156 153.578125 786.5625 C 153.453125 783.453125 154.171875 779.390625 155.890625 774.09375 C 164.128906 748.722656 193.917969 699.089844 223.980469 649.050781 L 223.980469 649.046875 L 224.078125 648.882812 L 224.082031 648.875 C 224.328125 648.460938 224.410156 647.96875 224.3125 647.496094 L 224.3125 647.492188 L 224.296875 647.421875 C 211.03125 584.171875 197.902344 521.398438 210.699219 459.28125 C 223.503906 397.160156 262.304688 335.503906 312.648438 289.550781 C 362.957031 243.628906 424.71875 213.453125 492.289062 203.351562 C 503.832031 201.628906 515.550781 200.488281 527.375 200.015625 C 547.515625 199.207031 567.992188 200.332031 588.539062 203.789062 Z M 589.039062 200.824219 C 568.285156 197.332031 547.601562 196.195312 527.253906 197.007812 C 515.316406 197.488281 503.492188 198.636719 491.847656 200.378906 C 423.660156 210.574219 361.355469 241.019531 310.621094 287.332031 C 259.90625 333.625 220.710938 395.8125 207.753906 458.675781 C 194.867188 521.214844 207.988281 584.316406 221.171875 647.15625 L 221.179688 647.199219 L 221.179688 647.203125 C 221.257812 647.570312 221.167969 647.9375 220.964844 648.222656 L 220.964844 648.226562 L 220.902344 648.332031 C 191.125 697.902344 161.355469 747.523438 153.03125 773.167969 C 151.265625 778.605469 150.429688 783.0625 150.574219 786.683594 C 150.886719 794.527344 155.589844 798.007812 163.765625 799.382812 C 168.539062 800.1875 174.378906 800.230469 180.964844 799.964844 L 180.957031 799.964844 L 180.988281 799.953125 L 180.96875 799.964844 C 184.253906 799.835938 187.765625 799.621094 191.566406 799.359375 L 191.582031 799.359375 L 191.59375 799.347656 L 191.582031 799.359375 C 223.851562 797.125 275.007812 791.324219 326.207031 785.511719 L 326.207031 785.507812 C 326.328125 785.496094 326.449219 785.5 326.570312 785.519531 C 326.722656 785.542969 326.871094 785.597656 327.003906 785.675781 L 327.015625 785.683594 L 327.019531 785.683594 L 327.039062 785.699219 L 327.070312 785.714844 L 327.097656 785.734375 L 327.101562 785.734375 C 368.011719 814.238281 409.15625 842.730469 468.15625 852.65625 C 479.0625 854.492188 490.582031 855.691406 502.828125 856.140625 L 502.828125 856.136719 C 510.574219 856.421875 518.585938 856.402344 526.84375 856.074219 L 526.851562 856.070312 L 526.851562 856.074219 C 602.523438 853.042969 697.164062 823.757812 761.453125 759.484375 C 832.738281 688.21875 866.582031 574.050781 851.476562 475.367188 C 836.367188 376.65625 772.292969 293.496094 703.242188 246.886719 C 666.054688 221.785156 627.417969 207.28125 589.039062 200.824219 Z M 589.039062 200.824219 " fill-opacity="1" fill-rule="nonzero"/></g></g></g></g><g clip-path="url(#ba6da02164)"><g clip-path="url(#5fa8cd9388)"><g clip-path="url(#168adc08fd)"><g clip-path="url(#6a357eeaa8)"><path fill="#01c500" d="M 651.253906 842.542969 C 650.703125 842.453125 650.171875 842.808594 650.046875 843.359375 L 650.046875 843.367188 C 649.925781 843.933594 650.285156 844.496094 650.851562 844.625 L 650.863281 844.625 C 650.875 844.628906 650.894531 844.632812 650.910156 844.632812 C 651.460938 844.726562 651.992188 844.371094 652.113281 843.816406 L 652.117188 843.816406 C 652.242188 843.25 651.882812 842.6875 651.320312 842.558594 L 651.3125 842.558594 L 651.308594 842.554688 C 651.292969 842.550781 651.273438 842.546875 651.253906 842.542969 Z M 651.253906 842.542969 " fill-opacity="1" fill-rule="nonzero"/></g></g></g></g></svg>