<?xml version="1.0" encoding="UTF-8"?>
<svg version="1.1" viewBox="0 0 2836 1108" xmlns="http://www.w3.org/2000/svg">
 <g>
  <path d="m2633.5 569.23h70.6c.1994 0 .36.16056.36.36v232.18c0 .19944-.1606.36-.36.36h-70.6c-.1994 0-.36-.16056-.36-.36v-232.18c0-.19944.1606-.36.36-.36zm-478.72-60.09h82.07a.39.39 0 01.36.26l105.69 292.22a.39.39 0 01-.37.52h-74.66a.39.39 0 01-.37-.26l-17.34-51.23a.39.39 0 00-.37-.26h-108.76a.39.39 0 00-.37.26l-17.35 51.23a.39.39 0 01-.37.26h-73.84a.39.39 0 01-.37-.52l105.69-292.22a.39.39 0 01.36-.26zm4.81 185.79a.33.33 0 00.32.43l71.33-.12a.33.33 0 00.31-.44l-35.85-105.88a.33.33 0 00-.63 0zm287.37 10.12a.2.2 0 00-.37.12v96.57a.39.4 0 01-.39.4h-70.52a.44.44 0 01-.44-.44v-307.99a.38.38 0 01.38-.38h70.51a.47.47 0 01.47.47v169.48a.2.21 63.1 00.37.12l69.9-93.73a1.08 1.07 18.2 01.86-.43h86.69a.36.36 0 01.28.59l-95.97 115.82a.6.61 43.8 00.01.78l96.91 115.27a.27.27 0 01-.2.44h-87.28a1.17 1.14 71.5 01-.93-.48zm221.87-237.21c22.64.01 42.35 14.79 42.34 38.65-.01 23.85-19.73 38.61-42.38 38.6-22.64-.01-42.35-14.79-42.34-38.64.01-23.86 19.73-38.62 42.38-38.61z" style="fill:#7d2f59"/>
  <path d="m487.99 818.57.2 45.37a.63.63 0 01-.63.63l-260.74 1.13a.63.63 0 01-.63-.63l-.21-46.5a.63.63 0 01.63-.63h260.75a.63.63 0 01.63.63zm-.01-84.99.2 45.04a.79.79 0 01-.79.79l-260.42 1.12a.79.79 0 01-.79-.79l-.21-46.16a.79.79 0 01.79-.79h260.43a.79.79 0 01.79.79zm-260.05-38.31-.28-61.63a.76.76 0 01.75-.76l255-3.24a.76.76 0 01.77.74l1.34 63.77a.76.76 0 01-.75.77l-256.07 1.11a.76.76 0 01-.76-.76zm1475.4-125.31v37.25a.28.28 0 00.51.15q7.65-11.79 18.56-20.91 23.24-19.4 53.54-19.7a.42.41 0 01.42.41v74.51a.64.64 0 01-.65.64c-24.02-.2-59.12-2.69-68.71 26.46q-3.69 11.23-3.68 24.76.03 19.52 0 108.17a.43.44 0 01-.43.44h-70.6a.34.34 0 01-.34-.34v-232.16a.41.41 0 01.41-.41h70.24a.73.73 0 01.73.73zm164.16 133.41c1.59 27.6 20.83 46.41 49.27 43.77q18.02-1.68 27.66-14.97c1.72-2.37 2.83-4.71 4.12-6.85a.97.96 15.3 01.83-.47h74.53a.6.6 0 01.58.76c-13.33 49.17-56.31 78.57-106.27 79.82-27.28.68-53.19-5.41-74.97-20.66-40.41-28.29-52.19-78.33-44.73-124.78q3.02-18.78 11.29-34.92 18.63-36.36 57.08-50.92 15.54-5.88 32.36-7.4c20.58-1.87 42.15-.07 61.48 7.32q42.71 16.31 60.27 58.48 6.08 14.6 8.01 31.94 2.07 18.51-.15 37.66a.71.7 3.2 01-.7.62l-160.1.01a.56.56 0 00-.56.59zm.93-40.2h88.41a.3.3 0 00.3-.32c-.54-7.43-1.4-13.6-5.19-20.03-12.2-20.67-43.08-24.8-62.71-13.57-12.47 7.12-19.21 19.25-21.34 33.31a.54.53 4.2 00.53.61zm-451.7-17.98h-64.52a.72.72 0 01-.71-.6c-3.86-22.03-25.36-28.81-45.12-24.46-10.17 2.24-17.09 10.61-14.22 21.26 2.06 7.67 10.9 11.54 18.38 13.84q10.91 3.36 24.31 6.73 25.24 6.34 42.25 13.01c16.36 6.42 32.56 20.39 38.09 37.6 3.56 11.09 4.57 23.9 2.22 34.96-5.29 24.77-23.57 41.6-47.11 50.29-16.72 6.17-33.38 8-51.7 7.55q-22.49-.55-43.28-8.22c-30.84-11.39-55.6-36.81-58.04-70.76a.56.56 0 01.56-.6h69.23a.67.69 86.2 01.68.58c2.08 14.89 14.68 24.37 29.01 26.06 13.48 1.59 32.33-.63 34.64-16.67.9-6.25-2.46-12.09-7.84-15.1q-5.07-2.84-11.37-4.85-15.44-4.93-33.61-9.43-21.13-5.23-35.97-11.27-9.74-3.96-19.95-13.04-11.34-10.09-15.25-23.71-3.89-13.54-2.18-28.34c4.32-37.58 38.01-57.94 72.53-62.58 28.73-3.87 62.21-1.06 86.29 16.87 19.76 14.71 30.4 35.6 33.32 60.16a.64.64 0 01-.64.72zm-225.23 37.52c.62 24.64-4.64 48.44-17.69 69.34-19.32 30.94-51.13 48.38-87.32 52.53-30.05 3.44-61.08-2.11-86.6-18.74-23.14-15.08-39.5-39.19-46.15-65.86q-3.63-14.55-4.05-31.19-.42-16.63 2.47-31.34c5.3-26.98 20.43-51.88 42.78-68.1 24.65-17.9 55.36-25 85.55-23.08 36.35 2.33 69 18.14 89.86 48.07 14.07 20.21 20.53 43.72 21.15 68.37zm-169.32 2.75c-.08 14.48 2.61 29.74 12.02 41.27 19.84 24.34 57.6 22.26 75.16-3.65 7.29-10.75 9.57-24.29 9.64-37.08.08-12.79-2.05-26.35-9.22-37.18-17.27-26.1-55.01-28.61-75.12-4.49-9.54 11.43-12.4 26.66-12.48 41.13zm451.68-116.9v-55.44a.56.57 0 01.56-.57h70.4a.37.37 0 01.37.37v55.91a.4.4 0 00.4.4h45.86a.5.5 0 01.5.5v58.12a.59.59 0 01-.59.59h-45.75a.42.42 0 00-.42.42q-.01 75.59.01 92.64c.01 15.26 7.22 19.91 21.55 20.08q4.6.05 25.14.01a.48.47 0 01.48.47v59.64a.43.43 0 01-.43.43q-21.63.03-35.68-.01c-17.16-.05-34.02-2.68-48.91-10.76-26.45-14.34-33.46-42.04-33.49-70.11q-.04-43.72-.01-92.21a.6.6 0 00-.6-.6h-27.09a.73.72 0 01-.73-.72v-57.94a.55.55 0 01.55-.55h27.21a.67.67 0 00.67-.67zm-821.72 58.62v174.7a.26.26 0 01-.26.26h-70.42a.64.65 0 01-.64-.65v-292.08a.29.29 0 01.29-.29h83.4a.79.79 0 01.73.49l81.78 201.78a.27.26 44.8 00.49 0l81.03-201.89a.6.6 0 01.56-.38h82.77a.67.67 0 01.67.67v291.82a.53.53 0 01-.53.53h-70.5a.32.32 0 01-.32-.32v-174.39a.15.15 0 00-.29-.06l-65.04 174.3a.71.71 0 01-.67.47h-56.63a.62.61 79.8 01-.58-.41l-65.43-174.63a.21.21 0 00-.41.08zm-43.1-201.46q-63.72-1.45-121.55-2.93c-4.59-.12-5.73 1.92-5.68 6.34q1.52 126.83 1.89 162.58a.64.64 0 01-.64.65l-252.29 2.23a.73.73 0 01-.73-.72q-.91-101.4-1.38-162.3-.03-5.02-5.16-5.14-24.84-.58-115-2.88-.67-.02-.95-.18a.49.49 0 01-.09-.79l246.41-226.6a.58.57 43.8 01.78-.01l254.83 228.64a.64.64 0 01-.44 1.11z" style="fill:#003735"/>
 </g>
</svg>
